<?xml version="1.0" encoding="utf-8"?>
<!-- Generator: Adobe Illustrator 23.0.3, SVG Export Plug-In . SVG Version: 6.00 Build 0)  -->
<svg version="1.1" xmlns="http://www.w3.org/2000/svg" xmlns:xlink="http://www.w3.org/1999/xlink" x="0px" y="0px"
	 viewBox="0 0 300 223" style="enable-background:new 0 0 300 223;" xml:space="preserve">
<style type="text/css">
	.st0{display:none;}
	.st1{display:inline;}
	.st2{clip-path:url(#SVGID_2_);}
	.st3{clip-path:url(#SVGID_4_);}
	.st4{clip-path:url(#SVGID_6_);}
	.st5{clip-path:url(#SVGID_8_);}
	.st6{fill:#231F20;}
	.st7{clip-path:url(#SVGID_10_);}
	.st8{clip-path:url(#SVGID_12_);}
	.st9{clip-path:url(#SVGID_14_);}
	.st10{fill-rule:evenodd;clip-rule:evenodd;}
	.st11{clip-path:url(#SVGID_16_);}
	.st12{clip-path:url(#SVGID_18_);}
	.st13{clip-path:url(#SVGID_20_);}
	.st14{clip-path:url(#SVGID_22_);}
	.st15{clip-path:url(#SVGID_24_);}
	.st16{clip-path:url(#SVGID_26_);}
	.st17{clip-path:url(#SVGID_28_);}
	.st18{clip-path:url(#SVGID_30_);}
	.st19{clip-path:url(#SVGID_32_);}
	.st20{clip-path:url(#SVGID_34_);}
</style>
<g id="Capa_1" class="st0">
	<g class="st1">
		<defs>
			<rect id="SVGID_1_" x="7.29" y="7.99" width="290.71" height="207.26"/>
		</defs>
		<clipPath id="SVGID_2_">
			<use xlink:href="#SVGID_1_"  style="overflow:visible;"/>
		</clipPath>
		<g class="st2">
			<path d="M288.74,158.83c-4.48,10.59-10.89,20.1-19.04,28.26c-8.17,8.17-17.67,14.58-28.25,19.06
				c-10.95,4.64-22.59,6.99-34.59,6.99c-12,0-23.64-2.35-34.6-6.99c-0.65-0.27-1.33-0.57-2.21-0.97c-8.1-3.7-15.59-8.57-22.24-14.5
				c-1.29-1.14-2.56-2.35-3.8-3.59c-0.19-0.18-0.37-0.36-0.55-0.55c0,0,0,0,0,0c-5.27-5.36-9.83-11.35-13.56-17.79
				c-1.84-3.19-3.5-6.52-4.93-9.92c-4.64-10.96-6.98-22.61-6.98-34.62c0-12,2.35-23.65,6.98-34.61c0.6-1.43,1.26-2.87,1.95-4.28
				l1.09-2.24c0.08,0.05,0.16,0.1,0.23,0.15c0.72,0.47,1.43,0.95,2.13,1.45c0.08,0.06,0.15,0.12,0.23,0.18
				c0.64,0.45,1.26,0.92,1.88,1.4c0.09,0.07,0.19,0.15,0.28,0.22l-1.24,2.65c-5.15,11.03-7.76,22.83-7.76,35.08
				c0,13.41,3.11,26.21,9.23,38.06c3.68,7.12,8.37,13.67,13.93,19.48c1.58,1.64,3.24,3.24,4.94,4.74
				c6.52,5.77,13.84,10.45,21.77,13.93c10.51,4.6,21.69,6.94,33.22,6.94c45.82,0,83.1-37.3,83.1-83.15
				c0-45.84-37.28-83.14-83.1-83.14c-11.68,0-22.98,2.39-33.59,7.09c-10.24,4.55-19.34,11.03-27.04,19.25l-1.78,1.9
				c-0.09-0.07-0.18-0.14-0.26-0.22c-0.62-0.52-1.23-1.04-1.86-1.54c-0.05-0.04-0.1-0.08-0.14-0.11c-0.67-0.54-1.35-1.06-2.04-1.58
				c-0.08-0.06-0.15-0.12-0.23-0.18l1.67-1.8c0.83-0.9,1.65-1.75,2.44-2.54c8.16-8.17,17.66-14.58,28.25-19.06
				c10.96-4.64,22.59-6.99,34.59-6.99c12,0,23.64,2.36,34.59,6.99c10.58,4.47,20.09,10.89,28.25,19.06
				c8.16,8.16,14.56,17.67,19.04,28.26c4.64,10.96,6.99,22.61,6.99,34.61C295.73,136.22,293.38,147.87,288.74,158.83z M126.25,81.98
				l-1.19,2.44c-0.7,1.44-1.37,2.92-1.99,4.38c-4.74,11.22-7.15,23.14-7.15,35.42c0,12.29,2.4,24.2,7.15,35.42
				c1.47,3.47,3.16,6.88,5.05,10.14c3.65,6.31,8.08,12.18,13.17,17.47l-1.83,1.85c-13.05,13.26-30.47,20.56-49.05,20.56
				c-37.96,0-68.84-30.9-68.84-68.88c0-37.98,30.88-68.89,68.84-68.89C103.11,71.91,115.47,75.39,126.25,81.98z M145.99,70.69
				l1.74-1.86c15.29-16.33,36.84-25.7,59.13-25.7c44.69,0,81.04,36.38,81.04,81.08c0,44.71-36.35,81.09-81.04,81.09
				c-11.25,0-22.15-2.28-32.4-6.76c-7.44-3.26-14.32-7.63-20.49-12.96l1.63-2.07c5.63-7.15,10.02-15.12,13.03-23.67
				c3.12-8.85,4.7-18.13,4.7-27.6c0-12.13-2.56-23.82-7.6-34.74C161,87.27,154.36,78.26,145.99,70.69z M134.82,161.33
				c-5.97-11.56-9-24.05-9-37.12c0-11.94,2.55-23.44,7.57-34.2l1.02-2.19c15.8,13.15,24.84,32.37,24.84,52.97
				c0,12.97-3.62,25.61-10.48,36.54l-1.26,2.02C142.48,173.94,138.21,167.89,134.82,161.33z M143.72,193.07
				c-14.74,12.95-33.68,20.07-53.3,20.07c-44.58,0-80.86-36.29-80.86-80.9c0-36.9,24.91-69.11,60.57-78.33
				c0.32-0.09,0.58-0.31,0.7-0.62c0.12-0.31,0.09-0.65-0.08-0.93L52.85,23.86c-0.33-0.52-0.24-1.21,0.2-1.64l9.69-9.33
				c0.3-0.29,0.7-0.45,1.13-0.45c0.44,0,0.84,0.16,1.14,0.47l0,0l-7.68,8.2l-1.43,1.52c0,0,0,0,0,0c-0.06,0.07-0.11,0.15-0.16,0.23
				c0,0,0,0,0,0.01c0,0,0,0.01-0.01,0.02c-0.01,0.03-0.02,0.06-0.03,0.09c-0.02,0.05-0.04,0.11-0.05,0.16c0,0.01,0,0.03,0,0.04
				c0,0.03,0,0.07,0,0.11c0,0.05,0,0.09,0,0.14c0,0.02,0.01,0.04,0.01,0.07c0,0.03,0.01,0.07,0.02,0.1
				c0.01,0.04,0.02,0.08,0.03,0.11c0,0.01,0,0.02,0,0.02c0.01,0.02,0.03,0.04,0.04,0.06c0.01,0.01,0.01,0.04,0.02,0.05L72.55,52.6
				c0.06,0.11,0.14,0.2,0.23,0.27l10.02,8.3h0l0,0.01c0,0,0.01,0,0.02,0.01c0.07,0.06,0.14,0.1,0.22,0.13
				c0.03,0.01,0.06,0.02,0.08,0.03c0.07,0.02,0.13,0.04,0.19,0.05c0.03,0,0.06,0,0.09,0.01c0.02,0,0.04,0,0.05,0
				c0.05,0,0.1-0.01,0.14-0.02c0.03,0,0.06,0,0.09-0.01c0.1-0.02,0.19-0.05,0.28-0.11l2.32-1.3l2.88-1.62
				c0.33-0.18,0.53-0.53,0.53-0.9V16h1.43v41.47c0,0.31,0.14,0.59,0.38,0.79c0.05,0.04,0.09,0.08,0.15,0.11l0.07,0.04l5.51,3.09
				c0.08,0.05,0.18,0.08,0.27,0.11c0.03,0,0.06,0,0.09,0.01c0.05,0.01,0.1,0.02,0.14,0.02c0.02,0,0.04,0,0.06,0
				c0.03,0,0.06-0.01,0.09-0.01c0.07-0.01,0.13-0.02,0.2-0.05c0.02-0.01,0.05-0.02,0.08-0.03c0.09-0.04,0.17-0.09,0.25-0.15
				l9.31-7.97c0.09-0.08,0.16-0.16,0.22-0.26l17.07-29.28c0.01-0.02,0.01-0.04,0.02-0.05c0.01-0.02,0.02-0.04,0.03-0.06
				c0-0.01,0-0.02,0.01-0.03c0.01-0.04,0.02-0.08,0.03-0.11c0.01-0.03,0.02-0.06,0.02-0.1c0-0.02,0.01-0.05,0.01-0.07
				c0-0.04,0-0.09,0-0.13c0-0.04,0-0.07,0-0.1c0-0.02,0-0.03,0-0.05c-0.01-0.05-0.03-0.11-0.05-0.16c-0.01-0.03-0.01-0.06-0.03-0.09
				c0,0,0-0.01-0.01-0.02c0,0,0,0,0-0.01c-0.04-0.08-0.09-0.15-0.15-0.21c0,0-0.01-0.01-0.01-0.02l-9.06-9.71l0-0.01
				c0.62-0.63,1.64-0.64,2.28-0.02l9.69,9.33c0.44,0.43,0.53,1.12,0.2,1.64l-17.89,28.51c-0.18,0.28-0.21,0.62-0.09,0.93
				c0.12,0.31,0.38,0.53,0.7,0.62c9.76,2.52,18.87,6.81,27.06,12.75c1.04,0.76,2.07,1.54,3.09,2.35c1.01,0.81,2.01,1.65,2.98,2.51
				c17.43,15.37,27.43,37.5,27.43,60.72c0,18.34-5.98,35.63-17.29,50l-1.55,1.97c-0.49-0.44-0.98-0.89-1.46-1.35
				c-0.08-0.07-0.16-0.14-0.23-0.22c-0.6-0.57-1.18-1.17-1.76-1.76l1.54-2.46c7.06-11.27,10.79-24.28,10.79-37.64
				c0-21.67-9.7-41.86-26.63-55.41c-0.52-0.42-1.05-0.83-1.58-1.24c-1.43-1.08-2.91-2.1-4.41-3.07c-0.19-0.12-0.37-0.24-0.55-0.36
				c-11.28-7.11-24.32-10.86-37.72-10.86c-18.94,0-36.74,7.38-50.13,20.78c-13.39,13.4-20.77,31.21-20.77,50.16
				c0,18.95,7.38,36.76,20.77,50.16c13.39,13.4,31.19,20.78,50.13,20.78c9.67,0,19.04-1.91,27.86-5.69
				c8.51-3.64,16.14-8.85,22.67-15.49l1.8-1.82c0.53,0.53,1.07,1.05,1.61,1.56c0.15,0.14,0.3,0.28,0.45,0.42
				c0.26,0.24,0.52,0.49,0.78,0.73L143.72,193.07z M69.04,14.24L69,22.31h-9.98l0.6-0.64l9.44-10.06L69.04,14.24z M80.26,14.88
				l-9.19,6.47l0.04-8.38l0.01-2.94h16.04L80.26,14.88z M109.7,10.02l0.05,11.33l-8.17-5.75l-7.93-5.58H109.7z M111.51,42.92
				l-5.26,9.03l-2.87,2.46L111.51,42.92z M86.27,57.63L71.61,24.37h16.03v32.49L86.27,57.63z M89.38,10.98v2.96
				c-0.06,0-0.11,0.02-0.17,0.02c-0.05,0-0.11,0.01-0.16,0.02c-0.06,0.01-0.12,0.04-0.18,0.06c-0.05,0.02-0.11,0.03-0.16,0.05
				c-0.06,0.02-0.11,0.06-0.16,0.09c-0.04,0.03-0.09,0.05-0.13,0.08c-0.05,0.04-0.1,0.08-0.14,0.12c-0.04,0.03-0.08,0.06-0.12,0.1
				c-0.04,0.05-0.08,0.1-0.12,0.15c-0.03,0.04-0.07,0.08-0.1,0.11c-0.04,0.06-0.07,0.12-0.1,0.18c-0.02,0.04-0.05,0.08-0.07,0.12
				c-0.03,0.07-0.05,0.14-0.07,0.22c-0.01,0.04-0.03,0.08-0.04,0.11c-0.02,0.11-0.03,0.24-0.03,0.36v6.58H73.28l7.66-5.4
				L89.38,10.98z M107.54,22.31H93.18v-6.58c0-0.12-0.01-0.24-0.03-0.36c0-0.04-0.02-0.08-0.03-0.11c-0.02-0.08-0.04-0.15-0.07-0.22
				c-0.02-0.04-0.04-0.08-0.07-0.12c-0.03-0.06-0.06-0.12-0.1-0.17c-0.03-0.04-0.06-0.08-0.1-0.12c-0.04-0.05-0.08-0.1-0.12-0.14
				c-0.03-0.04-0.08-0.07-0.12-0.1c-0.04-0.04-0.09-0.08-0.14-0.12c-0.04-0.03-0.09-0.05-0.14-0.08c-0.05-0.03-0.11-0.06-0.16-0.09
				c-0.05-0.02-0.11-0.04-0.15-0.05c-0.06-0.02-0.12-0.04-0.18-0.06c-0.06-0.01-0.11-0.01-0.17-0.02c-0.06,0-0.11-0.02-0.17-0.02
				v-2.96l8.67,6.1L107.54,22.31z M111.47,24.37h10.66l-24.7,34.88l-0.8-0.45L111.47,24.37z M94.83,57.78l-1.65-0.92V24.37h16.04
				l-5,11.61L94.83,57.78z M113.77,13.76l6.85,7.33l1.13,1.21h-9.93l-0.05-10.69L113.77,13.76z M77.87,54.42l-3.64-3.02l-6.1-10.45
				L77.87,54.42z M58.66,24.37h10.69l15.11,34.27l-0.7,0.4L58.66,24.37z M290.64,88.8c-4.58-10.84-11.14-20.57-19.49-28.92
				c-8.35-8.36-18.08-14.92-28.9-19.5c-11.22-4.75-23.12-7.15-35.4-7.15c-12.28,0-24.18,2.4-35.4,7.15
				c-10.83,4.58-20.55,11.14-28.9,19.5c-0.81,0.81-1.64,1.68-2.49,2.6l-1.84,1.99c-7.83-5.54-16.45-9.64-25.66-12.18l17.15-27.33
				c0.84-1.34,0.63-3.12-0.52-4.22l-9.69-9.33c-0.71-0.68-1.64-1.05-2.62-1.03c-0.94,0.01-1.82,0.39-2.49,1.05l-2.93-3.14
				c0,0,0,0-0.01,0c-0.07-0.07-0.14-0.12-0.22-0.17c-0.01-0.01-0.03-0.01-0.04-0.02c-0.08-0.04-0.16-0.08-0.24-0.1
				c0,0-0.01,0-0.01,0c-0.07-0.01-0.15-0.02-0.22-0.02H70.09c-0.08,0-0.15,0.01-0.22,0.02c0,0-0.01,0-0.01,0
				c-0.09,0.02-0.17,0.05-0.24,0.1c-0.02,0-0.03,0.01-0.04,0.02c-0.08,0.05-0.16,0.11-0.22,0.17c0,0,0,0-0.01,0l-2.93,3.12
				c-0.69-0.66-1.59-1.03-2.56-1.03c-0.96,0-1.87,0.36-2.56,1.03l-9.69,9.33c-1.14,1.1-1.36,2.87-0.52,4.22l17.15,27.33
				c-8.32,2.3-16.19,5.88-23.42,10.65c-7.51,4.95-14.12,11.04-19.68,18.12c-5.61,7.15-9.97,15.1-12.97,23.64
				c-3.11,8.83-4.68,18.1-4.68,27.55c0,11.2,2.19,22.06,6.52,32.29c4.17,9.88,10.15,18.75,17.77,26.37
				c7.62,7.62,16.48,13.6,26.36,17.78c10.22,4.33,21.08,6.52,32.27,6.52c20.13,0,39.54-7.31,54.66-20.59l2.06-1.8
				c6.63,5.79,14.05,10.59,22.06,14.24c0.9,0.41,1.6,0.71,2.26,0.99c11.21,4.75,23.12,7.15,35.4,7.15c12.28,0,24.19-2.4,35.4-7.15
				c10.83-4.58,20.56-11.14,28.9-19.5c8.35-8.35,14.91-18.08,19.49-28.92c4.74-11.22,7.15-23.13,7.15-35.42
				C297.79,111.94,295.38,100.02,290.64,88.8"/>
		</g>
	</g>
</g>
<g id="Capa_2" class="st0">
	<path class="st1" d="M23.89,190.94c-1.04-0.74-2.52-0.56-3.31,0.43c-0.79,0.99-0.59,2.38,0.45,3.13c0.29,0.2,7.15,5.12,17.53,8.47
		c10.38,3.36,18.97,3.45,19.33,3.45c0.01,0,0.01,0,0.02,0c1.29,0,2.34-0.99,2.35-2.23c0.01-1.24-1.04-2.24-2.34-2.25
		c-0.08,0-8.24-0.1-17.85-3.21C30.47,195.63,23.95,190.99,23.89,190.94z"/>
	<path class="st1" d="M130.31,63.14c0-0.24-0.04-0.48-0.12-0.7c-0.01-0.02-0.02-0.05-0.04-0.07c-0.02-0.07-0.07-0.12-0.11-0.19
		c-0.08-0.17-0.19-0.33-0.32-0.48c-0.06-0.07-0.13-0.12-0.2-0.18c-0.14-0.14-0.31-0.24-0.5-0.33c-0.05-0.02-0.08-0.07-0.13-0.09
		c-0.04-0.01-0.06,0-0.08-0.01c-0.25-0.1-0.53-0.16-0.8-0.16c-0.01,0-0.02-0.01-0.04-0.01h-0.01c-46.94,0-73.45,6.99-74.56,7.29
		c-0.01,0.01-0.02,0.01-0.04,0.02c-0.08,0.02-0.17,0.07-0.25,0.11c-0.17,0.07-0.35,0.15-0.49,0.26c-0.08,0.06-0.16,0.12-0.23,0.2
		c-0.12,0.11-0.24,0.25-0.33,0.39c-0.05,0.08-0.1,0.17-0.14,0.26c-0.08,0.17-0.13,0.36-0.17,0.56c-0.01,0.06-0.05,0.1-0.05,0.17
		c-0.04,0.33-2.48,33.22,28.23,37.72c1.21,0.18,2.4,0.27,3.58,0.27c26.4,0,45.77-42.26,46.6-44.13c0.02-0.03,0.01-0.07,0.02-0.1
		c0.08-0.22,0.13-0.43,0.14-0.67C130.3,63.23,130.31,63.19,130.31,63.14z M119.14,65.47c-9.91,4.59-29.34,10.7-55.36,5.11
		C74.15,68.66,93.11,65.94,119.14,65.47z M83.51,103.69c-0.96,0-1.91-0.07-2.87-0.2c-21.74-3.19-24.18-22.73-24.31-30.13
		c10.39,2.88,19.87,4.01,28.29,4.01c17.37,0,30.31-4.7,37.7-8.33C115.83,80.76,100.94,103.69,83.51,103.69z"/>
	<g class="st1">
		<defs>
			<rect id="SVGID_3_" x="1" y="-1" width="297.78" height="223.81"/>
		</defs>
		<clipPath id="SVGID_4_">
			<use xlink:href="#SVGID_3_"  style="overflow:visible;"/>
		</clipPath>
		<g class="st3">
			<path d="M298.33,195.75c-0.57-1.91-2.22-3.29-4.29-3.62L261.87,187l-23.57-69.4c38.8-15.19,14.01-99.05,12.91-102.68
				c-0.04-0.1-0.11-0.18-0.16-0.28c-0.04-0.14-0.04-0.28-0.08-0.42c-1.73-5.11-8.67-7.86-20.04-7.94
				c-10.41-0.06-23.3,2.11-36.46,6.14s-25,9.44-33.37,15.24c-3.68,2.57-6.48,5.06-8.44,7.48c-3.79-9.98-23.65-21.07-43.98-27.65
				C84.28-0.39,56.18-2.75,52.17,8.44c-0.06,0.17-0.1,0.34-0.14,0.51c-0.04,0.07-0.08,0.11-0.11,0.18
				C50.76,12.74,24.52,96.2,63.06,112L38.3,181.01l-32.25,4.63c-2.07,0.3-3.74,1.66-4.35,3.55c-0.61,1.91-0.02,3.93,1.53,5.28
				c4.25,3.72,13.39,9.46,32.74,15.73c16.39,5.29,26.74,6.64,33.02,6.64c1.15,0,2.15-0.05,3.03-0.12c2.1-0.17,3.87-1.43,4.6-3.3
				c0.74-1.85,0.3-3.89-1.15-5.33l-22.58-22.36l24.75-69.01c35.19,8.49,64.52-51.16,72.72-69.74c3.73,9.48,31.05,75.85,66.84,75.85
				c2.1,0,4.25-0.24,6.42-0.73l23.57,69.39l-22.95,22c-1.48,1.42-1.96,3.45-1.25,5.31c0.7,1.88,2.45,3.18,4.55,3.38
				c1.06,0.1,2.29,0.17,3.74,0.17c6.33,0,16.54-1.28,32.41-6.14c19.46-5.96,28.69-11.56,33.02-15.2
				C298.29,199.67,298.91,197.67,298.33,195.75z M163.88,31.29c7.96-5.53,19.34-10.72,32.04-14.6c12.5-3.83,24.74-5.93,34.53-5.93
				c0.14,0,0.3,0,0.44,0c8.75,0.07,14.58,1.87,15.59,4.84c1,2.97-2.62,7.68-9.67,12.57c-7.98,5.53-19.36,10.71-32.04,14.6
				c-12.69,3.88-25.06,6.02-34.99,5.93c-8.74-0.07-14.57-1.87-15.58-4.84C153.21,40.89,156.83,36.19,163.88,31.29z M107.17,11.75
				c26.26,8.48,43.43,21.68,41.23,27.8c-1.05,2.95-6.88,4.61-15.67,4.6c-9.86-0.09-22.25-2.38-34.87-6.47
				C71.59,29.19,54.44,16,56.63,9.88C58.82,3.76,80.9,3.26,107.17,11.75z M76.91,111.84c-1.23-0.4-2.57,0.23-2.99,1.4l-25.95,72.34
				c-0.29,0.79-0.08,1.67,0.53,2.27l23.56,23.34c0.25,0.24,0.21,0.49,0.16,0.65c-0.06,0.15-0.21,0.4-0.6,0.43
				c-5.31,0.43-15.53-0.3-34.11-6.31c-18.59-6.01-27.17-11.34-31.08-14.77c-0.29-0.25-0.25-0.53-0.2-0.68
				c0.06-0.17,0.19-0.39,0.54-0.43l33.67-4.84c0.87-0.12,1.6-0.7,1.87-1.49l25.95-72.34c0.42-1.17-0.24-2.44-1.47-2.85
				C35.9,98.58,48.74,38.86,54.33,17.8c6.47,8.98,24.06,18.31,42.01,24.12c13.09,4.22,26,6.61,36.35,6.7c0.21,0,0.42,0,0.63,0
				c4.78,0,8.7-0.52,11.82-1.5C136.04,67.03,107.8,121.83,76.91,111.84z M293.59,197.67c-3.99,3.36-12.66,8.57-31.33,14.29
				c-18.69,5.71-28.92,6.29-34.21,5.78c-0.39-0.05-0.55-0.3-0.6-0.44c-0.07-0.16-0.1-0.42,0.16-0.65l23.97-22.97
				c0.62-0.6,0.84-1.46,0.56-2.27l-24.71-72.72c-0.19-0.57-0.61-1.03-1.17-1.31c-0.55-0.27-1.21-0.32-1.79-0.14
				c-31.05,9.51-58.35-45.71-67.12-65.76c3.24,1.07,7.37,1.66,12.42,1.69c0.17,0,0.32,0,0.48,0c10.28,0,23.03-2.18,35.99-6.14
				c13.16-4.03,25-9.44,33.36-15.24c4.1-2.84,7.08-5.61,9.05-8.27c5.22,21.1,17.09,81.08-13.99,90.6c-1.24,0.37-1.92,1.64-1.53,2.82
				l24.71,72.74c0.27,0.79,0.99,1.37,1.86,1.51l33.58,5.36c0.35,0.06,0.48,0.27,0.54,0.44
				C293.84,197.13,293.87,197.42,293.59,197.67z"/>
		</g>
	</g>
	<path class="st1" d="M276.12,197.15c-0.06,0.05-6.62,4.58-16.32,7.55c-9.42,2.88-17.41,2.93-17.89,2.93c-0.05,0-0.02,0-0.04,0
		c-1.29,0-2.35,0.99-2.35,2.23c-0.01,1.23,1.03,2.24,2.33,2.26c0.01,0,0.05,0,0.11,0c1.05,0,9.34-0.1,19.28-3.16
		c10.42-3.19,17.39-7.99,17.67-8.2c1.05-0.74,1.28-2.13,0.5-3.13C278.65,196.63,277.17,196.42,276.12,197.15z"/>
	<path class="st1" d="M250.37,75.97c0-0.06-0.04-0.11-0.05-0.17c-0.02-0.19-0.07-0.39-0.16-0.57c-0.04-0.08-0.08-0.15-0.13-0.22
		c-0.11-0.18-0.24-0.34-0.39-0.48c-0.04-0.05-0.07-0.09-0.12-0.12c-0.21-0.16-0.44-0.3-0.7-0.39c-0.01,0-0.02-0.01-0.04-0.01
		c-0.02-0.01-0.05-0.03-0.07-0.03c-1.1-0.32-27.49-7.79-74.43-8.45h-0.01c-0.24,0.01-0.49,0.06-0.73,0.14
		c-0.06,0.02-0.12,0.01-0.18,0.03c-0.11,0.05-0.19,0.12-0.29,0.18c-0.08,0.05-0.17,0.1-0.25,0.16c-0.12,0.09-0.24,0.18-0.35,0.3
		c-0.11,0.11-0.18,0.24-0.26,0.37c-0.05,0.09-0.11,0.16-0.14,0.25c-0.01,0.02-0.02,0.03-0.04,0.06c-0.08,0.23-0.13,0.47-0.13,0.7
		c0,0.05,0.01,0.09,0.01,0.12c0.01,0.23,0.06,0.45,0.13,0.67c0.01,0.03,0.01,0.07,0.02,0.1c0.82,1.9,19.63,44.85,46.22,44.85
		c1.06,0,2.14-0.08,3.22-0.22C252.29,109.24,250.4,76.31,250.37,75.97z M238.29,76.19c-26.02,5.15-45.35-1.24-55.21-5.96
		C209.07,71.11,227.96,74.11,238.29,76.19z M220.87,108.83c-18.7,2.45-34.46-22.62-41.08-35.1c7.53,3.85,20.91,8.92,39.03,8.92
		c8.05,0,17.04-1.02,26.87-3.58C245.43,86.48,242.66,105.98,220.87,108.83z"/>
</g>
<g id="Capa_3" class="st0">
	<g class="st1">
		<defs>
			<rect id="SVGID_5_" x="110.24" y="1.98" width="80.37" height="219.02"/>
		</defs>
		<clipPath id="SVGID_6_">
			<use xlink:href="#SVGID_5_"  style="overflow:visible;"/>
		</clipPath>
		<g class="st4">
			<path d="M189.37,44.07l-10.08-3.14c1.35-0.43,2.61-1.06,3.75-1.88c1.15-0.83,2.15-1.81,3-2.94c0.84-1.14,1.49-2.37,1.94-3.71
				c0.45-1.34,0.68-2.72,0.7-4.13c-0.01-1.25-0.19-2.47-0.55-3.67c-0.35-1.19-0.87-2.32-1.54-3.37c-0.67-1.06-1.47-2-2.41-2.83
				c-0.94-0.83-1.97-1.52-3.1-2.07l4.15-12.1c0.54-1.57-1.95-2.24-2.49-0.68c-1.37,3.97-2.73,7.93-4.09,11.9
				c-1.28-0.32-2.57-0.46-3.89-0.4c-1.32,0.06-2.6,0.31-3.84,0.75c-1.24,0.44-2.39,1.05-3.46,1.83c-1.06,0.77-1.98,1.69-2.77,2.74
				c-0.79,1.05-1.4,2.2-1.85,3.43c-0.45,1.23-0.7,2.51-0.77,3.82c-0.07,1.31,0.06,2.6,0.37,3.87c0.32,1.28,0.82,2.48,1.5,3.6
				c0.29,0.48,0.62,0.95,0.97,1.39l-9.17-2.85c-0.19-0.05-0.39-0.06-0.59-0.02c-0.2,0.05-0.37,0.12-0.54,0.25
				c-0.16,0.12-0.28,0.27-0.37,0.45c-0.09,0.18-0.14,0.37-0.14,0.57c-0.1,6.04-0.2,12.09-0.3,18.13h-18.06
				c-0.48-3.43-0.96-6.86-1.44-10.28c-1.11-7.91-2.21-15.82-3.32-23.73c-0.23-1.63-2.72-0.94-2.5,0.69
				c1.55,11.11,3.1,22.22,4.66,33.32H117.7c-0.33-0.01-0.61,0.09-0.85,0.31c-0.22,0.14-0.36,0.34-0.44,0.59
				c-0.08,0.25-0.06,0.49,0.03,0.73c3.36,9.57,5.02,19.44,4.97,29.58c-0.08,9.22-1.86,18.22-4.45,27.05
				c-2.01,6.86-4.57,13.68-5.53,20.79c-0.48,3.12-0.45,6.23,0.1,9.34c0.54,3.1,1.57,6.04,3.1,8.81
				c4.57,8.09,12.77,13.27,21.13,16.89l2.74,42.59l-20.95,8.93c-1.23,0.52-0.54,2.4,0.65,2.4h48.24c1.19,0,1.89-1.88,0.65-2.4
				l-21.26-8.93c1.12-14.19,2.24-28.39,3.35-42.58c7.83-3.32,15.46-7.91,20.34-15.02c1.75-2.57,3.03-5.36,3.83-8.36
				s1.08-6.05,0.85-9.15c-0.5-7.08-3.01-13.88-5.13-20.6c-2.64-8.37-4.83-16.86-5.39-25.65c-0.19-3.06-0.21-6.13-0.05-9.19
				l20.93-26.19c0.15-0.12,0.27-0.26,0.35-0.44l5.01-6.26c0.16-0.16,0.27-0.35,0.33-0.57c0.05-0.22,0.05-0.44-0.01-0.66
				c-0.06-0.23-0.17-0.41-0.32-0.58C189.77,44.25,189.59,44.13,189.37,44.07z M166.18,22.77c0.33-0.55,0.71-1.08,1.14-1.57
				c0.43-0.49,0.9-0.94,1.41-1.34c0.51-0.41,1.05-0.76,1.63-1.07c0.57-0.3,1.17-0.56,1.8-0.75c0.62-0.2,1.25-0.34,1.9-0.43
				c0.65-0.08,1.3-0.11,1.95-0.07c0.65,0.03,1.29,0.12,1.93,0.28c0.63,0.15,1.25,0.35,1.84,0.62c0.6,0.26,1.17,0.57,1.7,0.94
				c0.54,0.36,1.05,0.77,1.51,1.23c0.46,0.46,0.88,0.95,1.26,1.48c0.37,0.54,0.7,1.1,0.97,1.68c0.27,0.59,0.49,1.2,0.65,1.83
				c0.15,0.63,0.26,1.26,0.3,1.92c0.05,0.65,0.03,1.29-0.05,1.94c-0.08,0.65-0.21,1.28-0.4,1.9c-0.19,0.62-0.44,1.22-0.74,1.79
				c-0.3,0.58-0.65,1.12-1.05,1.64c-0.4,0.51-0.85,0.99-1.33,1.42c-0.48,0.43-1.01,0.82-1.56,1.15c-0.56,0.34-1.14,0.63-1.75,0.86
				c-0.61,0.23-1.23,0.41-1.87,0.53c-0.65,0.12-1.29,0.18-1.94,0.19c-0.65,0-1.3-0.05-1.94-0.17c1.3-3.78,2.59-7.55,3.89-11.33
				c0.1-0.34,0.06-0.66-0.12-0.97c-0.17-0.31-0.43-0.51-0.78-0.61c-0.34-0.1-0.67-0.06-0.98,0.12c-0.31,0.17-0.51,0.43-0.61,0.77
				l-3.88,11.28c-0.7-0.3-1.36-0.68-1.98-1.12c-0.63-0.45-1.19-0.94-1.7-1.51c-0.51-0.56-0.95-1.17-1.34-1.83
				c-0.38-0.66-0.69-1.35-0.92-2.08c-0.23-0.72-0.39-1.46-0.46-2.21c-0.07-0.76-0.06-1.52,0.03-2.26c0.09-0.75,0.26-1.49,0.51-2.21
				C165.46,24.1,165.78,23.42,166.18,22.77z M160.95,83.15c0.12,9.16,1.53,18.11,4.23,26.87c3.57,12.17,10.28,25.93,3.65,38.25
				c-4.39,8.17-12.85,13.28-21.2,16.71c-0.28,0.09-0.5,0.25-0.67,0.48c-0.17,0.23-0.26,0.48-0.28,0.77
				c-1.17,14.75-2.33,29.51-3.49,44.27c-0.01,0.5,0.2,0.86,0.64,1.11l16.26,6.83h-35.61l16.03-6.84c0.44-0.24,0.65-0.61,0.64-1.11
				l-2.84-44.27c-0.01-0.28-0.1-0.54-0.28-0.77c-0.17-0.23-0.39-0.39-0.67-0.47c-7.64-3.21-15.33-7.84-19.83-14.99
				c-1.57-2.57-2.67-5.32-3.28-8.26c-0.62-2.94-0.72-5.9-0.31-8.88c0.81-6.89,3.35-13.53,5.32-20.15
				c2.66-8.49,4.24-17.18,4.72-26.06c0.35-10.62-1.14-20.98-4.47-31.09h14.04c1.41,10.07,2.82,20.15,4.23,30.22
				c-0.38-0.1-0.76-0.2-1.15-0.28c-2.93-0.52-5.83-0.44-8.72,0.25c-0.14,0.04-0.27,0.09-0.39,0.17l-0.05,0.03
				c-0.03,0.02-0.06,0.05-0.09,0.07c-0.32,0.25-0.46,0.57-0.42,0.98c0.56,7.24,0.08,14.42-1.43,21.53c-0.59,2.59-1.35,5.12-2.3,7.59
				c-0.9,2.35-2.06,4.58-2.96,6.92c-2.1,5.51-2.75,11.18-1.98,17.02c0.22,1.67,0.62,3.3,1.2,4.88c0.58,1.58,1.34,3.08,2.25,4.49
				c0.92,1.41,1.99,2.71,3.2,3.89c1.21,1.17,2.54,2.2,3.97,3.08c1.67,0.98,3.43,1.77,5.26,2.37c1.84,0.6,3.72,0.99,5.65,1.17
				s3.85,0.17,5.77-0.06c1.92-0.23,3.79-0.67,5.62-1.31c3.09-1.02,5.84-2.61,8.27-4.77c2.43-2.16,4.32-4.71,5.67-7.66
				c2.49-5.66,2.3-11.75,1.43-17.73c-0.86-5.92-3.85-11.09-5.54-16.75c-1.82-6.27-2.7-12.66-2.67-19.19c0-2.06,0.07-4.12,0.21-6.18
				c0.08-1.23-1.41-1.54-2.21-0.91c-3.7,2.93-8.14,4.88-12.71,2.83c-1.06-0.48-2.1-0.98-3.15-1.44l-4.37-31.2h29.45
				C162.53,64.5,160.98,73.7,160.95,83.15z M146.1,127.01c-1.74-12.42-3.47-24.84-5.21-37.25c1.1,0.56,2.23,1.04,3.39,1.43
				c4.1,1.27,8.1-0.11,11.55-2.32c-0.28,6.15,0.19,12.24,1.38,18.28c0.52,2.57,1.21,5.1,2.07,7.58c0.85,2.44,1.95,4.78,2.87,7.19
				c2.12,5.51,2.88,11.2,2.28,17.07c-0.19,1.63-0.56,3.21-1.14,4.75c-0.57,1.54-1.31,2.99-2.23,4.35c-0.92,1.36-1.99,2.59-3.21,3.69
				c-1.22,1.1-2.55,2.04-4,2.83c-1.54,0.83-3.15,1.49-4.83,1.97c-1.68,0.48-3.4,0.77-5.14,0.88c-1.75,0.11-3.48,0.03-5.21-0.24
				c-1.73-0.27-3.41-0.73-5.04-1.36c-1.5-0.56-2.92-1.3-4.24-2.19c-1.32-0.9-2.52-1.95-3.6-3.14c-1.07-1.19-1.99-2.48-2.75-3.89
				c-0.76-1.41-1.34-2.88-1.74-4.43c-1.23-5.37-1.05-10.69,0.56-15.96c0.88-2.61,1.92-5.15,3.1-7.63c0.92-2.17,1.69-4.39,2.32-6.65
				c1.67-6.21,2.48-12.52,2.43-18.94c0-1.67-0.06-3.33-0.15-4.99c2.7-0.51,5.37-0.39,8.01,0.35c0.19,0.06,0.38,0.12,0.57,0.19
				c0.72,5.13,1.44,10.27,2.15,15.4l3.32,23.72C143.84,129.33,146.33,128.62,146.1,127.01z M164.01,74.56
				c0.74-6.83,2.27-13.48,4.59-19.95c0.05-0.19,0.06-0.39,0.02-0.59c-0.04-0.2-0.12-0.37-0.24-0.54c-0.12-0.16-0.28-0.28-0.46-0.37
				c-0.17-0.09-0.37-0.14-0.57-0.14H156.4l0.14-8.32l25.09,7.85L164.01,74.56z M183.35,50.36l-26.77-8.37
				c0.03-1.79,0.06-3.59,0.08-5.39l30.18,9.38L183.35,50.36z M172.22,54.18c0-0.23,0.05-0.45,0.13-0.65
				c0.09-0.21,0.21-0.39,0.37-0.55c0.16-0.15,0.34-0.28,0.55-0.36c0.21-0.09,0.42-0.13,0.65-0.13c0.23,0,0.45,0.05,0.65,0.13
				c0.21,0.08,0.39,0.21,0.55,0.37c0.16,0.15,0.28,0.34,0.37,0.55c0.09,0.21,0.13,0.42,0.13,0.65c0,0.22-0.04,0.44-0.13,0.65
				c-0.08,0.21-0.21,0.39-0.37,0.55c-0.15,0.15-0.34,0.28-0.55,0.36c-0.21,0.09-0.43,0.13-0.65,0.13c-0.23,0-0.44-0.04-0.65-0.13
				c-0.21-0.08-0.39-0.21-0.55-0.36c-0.15-0.16-0.28-0.34-0.37-0.55C172.27,54.62,172.22,54.4,172.22,54.18z M169.01,60.21
				c0.23,0,0.45,0.05,0.65,0.13c0.21,0.08,0.39,0.21,0.55,0.37c0.16,0.15,0.28,0.34,0.37,0.55c0.09,0.21,0.13,0.42,0.13,0.65
				s-0.04,0.44-0.13,0.65c-0.08,0.21-0.21,0.39-0.37,0.55c-0.15,0.16-0.34,0.28-0.55,0.37c-0.21,0.08-0.43,0.13-0.65,0.13
				c-0.23,0-0.44-0.05-0.65-0.13c-0.21-0.09-0.39-0.21-0.55-0.37c-0.16-0.16-0.28-0.34-0.37-0.55c-0.08-0.21-0.13-0.43-0.13-0.65
				c0-0.23,0.05-0.44,0.13-0.65c0.08-0.21,0.21-0.39,0.37-0.54c0.16-0.16,0.34-0.28,0.55-0.37
				C168.57,60.26,168.78,60.21,169.01,60.21z M159.98,50.36c0-0.22,0.05-0.44,0.13-0.65s0.21-0.39,0.37-0.55
				c0.16-0.15,0.34-0.28,0.55-0.37c0.21-0.08,0.43-0.13,0.65-0.13c0.23,0,0.45,0.05,0.65,0.13c0.21,0.09,0.39,0.21,0.55,0.37
				c0.16,0.16,0.28,0.34,0.37,0.55c0.09,0.21,0.13,0.43,0.13,0.65c0,0.23-0.04,0.45-0.13,0.65c-0.08,0.21-0.21,0.39-0.37,0.55
				c-0.15,0.15-0.34,0.28-0.55,0.36c-0.21,0.09-0.43,0.13-0.65,0.13c-0.23,0-0.44-0.04-0.65-0.13c-0.21-0.08-0.39-0.21-0.55-0.36
				c-0.16-0.16-0.28-0.34-0.37-0.55C160.02,50.8,159.98,50.58,159.98,50.36z"/>
		</g>
	</g>
</g>
<g id="Capa_4" class="st0">
	<g class="st1">
		<defs>
			<rect id="SVGID_7_" x="170.76" y="57.31" width="120.24" height="114.69"/>
		</defs>
		<clipPath id="SVGID_8_">
			<use xlink:href="#SVGID_7_"  style="overflow:visible;"/>
		</clipPath>
		<g class="st5">
			<path class="st6" d="M278.88,131.07h-4.8v-24.77c-0.01-0.79-0.08-1.58-0.24-2.36c-0.15-0.78-0.39-1.53-0.69-2.27
				c-0.3-0.73-0.68-1.43-1.12-2.09c-0.45-0.66-0.95-1.28-1.51-1.83c-0.56-0.56-1.18-1.06-1.84-1.51c-0.67-0.44-1.37-0.81-2.1-1.12
				c-0.74-0.31-1.5-0.54-2.28-0.69c-0.78-0.15-1.57-0.23-2.37-0.23h-2.4V69.46c-0.01-0.8-0.08-1.58-0.24-2.36
				c-0.15-0.78-0.39-1.53-0.69-2.27c-0.31-0.73-0.68-1.43-1.12-2.09c-0.45-0.66-0.95-1.27-1.51-1.83c-0.57-0.56-1.18-1.06-1.84-1.5
				c-0.67-0.45-1.37-0.82-2.1-1.12c-0.74-0.3-1.5-0.53-2.28-0.68c-0.78-0.16-1.57-0.24-2.37-0.24h-32.89c-0.8,0-1.59,0.08-2.37,0.23
				c-0.78,0.16-1.54,0.39-2.28,0.69c-0.73,0.31-1.43,0.68-2.1,1.12c-0.66,0.45-1.27,0.94-1.84,1.51c-0.57,0.56-1.07,1.17-1.51,1.83
				c-0.44,0.66-0.81,1.36-1.12,2.09c-0.31,0.73-0.54,1.49-0.69,2.27c-0.15,0.78-0.23,1.56-0.23,2.36v24.75h-2.42
				c-0.79,0-1.59,0.08-2.37,0.23c-0.78,0.16-1.54,0.39-2.28,0.69c-0.73,0.31-1.43,0.68-2.1,1.12c-0.66,0.44-1.27,0.94-1.84,1.5
				c-0.56,0.56-1.07,1.18-1.51,1.83c-0.45,0.66-0.82,1.36-1.13,2.09c-0.31,0.73-0.54,1.49-0.69,2.27c-0.16,0.78-0.23,1.57-0.24,2.36
				v24.77h-4.79c-0.8,0-1.59,0.08-2.37,0.23c-0.78,0.16-1.54,0.39-2.28,0.69c-0.73,0.31-1.43,0.68-2.1,1.12
				c-0.66,0.45-1.27,0.94-1.84,1.51c-0.56,0.56-1.07,1.17-1.51,1.83c-0.45,0.66-0.82,1.36-1.13,2.09c-0.31,0.73-0.53,1.49-0.69,2.27
				c-0.15,0.78-0.23,1.57-0.23,2.36v28.82h120.25v-28.82c0-0.79-0.08-1.58-0.24-2.36c-0.15-0.78-0.39-1.53-0.69-2.27
				c-0.3-0.74-0.68-1.43-1.12-2.09c-0.45-0.66-0.95-1.27-1.51-1.83c-0.56-0.56-1.18-1.06-1.84-1.51c-0.66-0.44-1.36-0.81-2.1-1.12
				c-0.73-0.31-1.49-0.53-2.28-0.69C280.46,131.15,279.68,131.07,278.88,131.07z M214.46,61.42h32.89c1.01,0,1.98,0.18,2.91,0.54
				c0.93,0.36,1.77,0.88,2.52,1.55c0.74,0.67,1.33,1.45,1.79,2.35c0.45,0.89,0.72,1.84,0.82,2.83c-2.04,2.17-4.08,3.23-5.81,3.18
				c-1.2-0.13-2.25-0.6-3.16-1.4c-1.63-1.38-3.52-2.07-5.66-2.08c-2.12,0.1-3.93,0.9-5.44,2.4c-0.77,0.85-1.71,1.32-2.86,1.42
				c-1.18,0-1.88-0.51-3.05-1.51c-0.38-0.39-0.79-0.74-1.23-1.06c-0.44-0.31-0.91-0.58-1.4-0.8c-0.49-0.23-0.99-0.41-1.52-0.54
				c-0.53-0.13-1.06-0.22-1.6-0.25c-0.54-0.03-1.08-0.02-1.61,0.05c-0.54,0.07-1.07,0.19-1.58,0.35s-1.01,0.38-1.49,0.64
				s-0.92,0.56-1.34,0.9c-1.11,0.85-2.35,1.36-3.73,1.53c-2.25,0.2-4.73-0.82-7.4-2.98c0.11-0.98,0.39-1.9,0.85-2.77
				c0.45-0.88,1.04-1.64,1.77-2.3c0.73-0.66,1.56-1.16,2.48-1.52C212.52,61.61,213.47,61.43,214.46,61.42z M206.39,73.48
				c2.37,1.56,4.97,2.26,7.8,2.09c2.05-0.23,3.91-0.95,5.59-2.17c1.27-0.82,2.12-1.37,3.53-1.29c1.35,0.14,2.49,0.7,3.41,1.7
				c1.53,1.6,3.41,2.44,5.63,2.52h0.15c2.11-0.09,3.91-0.87,5.41-2.36c1.12-0.94,1.75-1.42,2.95-1.45c1.21-0.03,1.98,0.47,3.23,1.34
				c1.55,1.28,3.34,1.98,5.35,2.13c2.21,0.02,4.21-0.62,6-1.92v20.2h-49.04V73.48z M199.88,98.27h62.03c0.91,0,1.79,0.15,2.65,0.45
				c0.86,0.29,1.64,0.72,2.35,1.28c0.71,0.56,1.31,1.22,1.8,1.98c0.49,0.76,0.84,1.58,1.05,2.46c-2.97,2.17-6.29,3.28-9.98,3.36
				c-2.05-0.09-3.98-0.61-5.79-1.57c-2.43-1.26-5.01-1.89-7.76-1.9c-2.69,0.04-5.19,0.76-7.48,2.17c-0.85,0.54-1.75,0.96-2.72,1.24
				c-0.96,0.28-1.95,0.41-2.95,0.41c-1.01-0.01-1.99-0.16-2.95-0.46c-0.96-0.29-1.86-0.72-2.69-1.28c-2.47-1.52-5.15-2.33-8.05-2.43
				c-2.86-0.06-5.58,0.53-8.16,1.77c-2.07,0.98-4.25,1.55-6.54,1.71c-4.47,0.11-8.65-0.94-12.54-3.14c0.22-0.86,0.57-1.65,1.06-2.4
				c0.49-0.74,1.08-1.38,1.78-1.93c0.69-0.54,1.47-0.96,2.3-1.26C198.14,98.44,199,98.28,199.88,98.27z M191.81,108.67
				c4.11,2.03,8.46,2.97,13.04,2.8c2.76-0.18,5.39-0.86,7.89-2.03c2.04-1.02,4.2-1.51,6.48-1.47c2.26,0.09,4.34,0.74,6.24,1.94
				c2.35,1.47,4.9,2.21,7.67,2.23h0.19c2.65-0.04,5.1-0.75,7.36-2.13c1.71-1.09,3.57-1.65,5.59-1.69c2.13,0.01,4.13,0.52,6.01,1.53
				c2.31,1.22,4.78,1.89,7.4,2c3.69,0,7.14-0.94,10.32-2.8v22.01h-78.19V108.67z M182.94,135.13h95.94c0.81,0,1.6,0.12,2.37,0.35
				c0.77,0.24,1.49,0.58,2.17,1.04c0.67,0.45,1.26,1,1.77,1.62c0.51,0.63,0.91,1.32,1.21,2.07c-4.69,2.27-9.64,3.41-14.85,3.42
				c-3.01-0.07-5.93-0.62-8.77-1.65c-3.36-1.22-6.83-1.83-10.42-1.81c-3.46,0.01-6.79,0.68-9.98,2.03
				c-2.67,1.17-5.45,1.75-8.36,1.76c-3.14,0.04-6.14-0.58-9.01-1.85c-3.45-1.46-7.06-2.23-10.82-2.31
				c-3.77-0.07-7.46,0.49-11.04,1.68c-3.17,1.06-6.41,1.68-9.75,1.85c-6.19,0.15-12.2-0.87-17.99-3.05
				c0.29-0.76,0.69-1.45,1.19-2.09c0.51-0.64,1.09-1.18,1.77-1.65c0.67-0.46,1.39-0.81,2.17-1.05
				C181.33,135.26,182.12,135.13,182.94,135.13z M174.86,167.93v-23.58c6.05,2.18,12.28,3.2,18.7,3.05
				c3.67-0.16,7.24-0.8,10.73-1.94c3.17-1.09,6.43-1.59,9.79-1.52c3.29,0.05,6.45,0.73,9.47,2.03c3.25,1.41,6.65,2.11,10.2,2.11
				h0.27c3.4-0.01,6.67-0.69,9.79-2.03c2.73-1.19,5.59-1.79,8.57-1.79c3.14-0.03,6.19,0.51,9.13,1.61c3.21,1.16,6.53,1.77,9.94,1.85
				c5.39,0.01,10.56-1.08,15.48-3.28v23.48L174.86,167.93z"/>
		</g>
	</g>
	<path class="st1" d="M84.85,97.95c-9.37,0-16.99,7.64-16.99,17.03c0,9.39,7.62,17.02,16.99,17.02c9.37,0,16.99-7.64,16.99-17.02
		C101.84,105.58,94.22,97.95,84.85,97.95z M84.85,129.64c-8.08,0-14.64-6.58-14.64-14.67s6.57-14.67,14.64-14.67
		c8.07,0,14.64,6.58,14.64,14.67C99.49,123.06,92.92,129.64,84.85,129.64z"/>
	<path class="st1" d="M84.85,69.58c-24.98,0-45.31,20.36-45.31,45.39s20.32,45.38,45.31,45.38c24.98,0,45.3-20.36,45.3-45.38
		S109.83,69.58,84.85,69.58z M84.85,158.01c-23.69,0-42.95-19.3-42.95-43.03s19.26-43.04,42.95-43.04
		c23.68,0,42.94,19.31,42.94,43.04S108.53,158.01,84.85,158.01z"/>
	<path class="st1" d="M84.85,60.03c-30.24,0-54.83,24.65-54.83,54.94s24.59,54.94,54.83,54.94c30.23,0,54.83-24.64,54.83-54.94
		S115.09,60.03,84.85,60.03z M84.85,167.56c-28.94,0-52.48-23.59-52.48-52.58s23.54-52.59,52.48-52.59
		c28.94,0,52.48,23.59,52.48,52.59S113.79,167.56,84.85,167.56z"/>
	<g class="st1">
		<defs>
			<rect id="SVGID_9_" x="141.87" y="50.69" width="15.13" height="121.06"/>
		</defs>
		<clipPath id="SVGID_10_">
			<use xlink:href="#SVGID_9_"  style="overflow:visible;"/>
		</clipPath>
		<g class="st7">
			<path d="M156.04,51c-0.56-0.1-1.11,0.21-1.32,0.74c-9.3,24.43-13.44,46.64-12.66,67.89c0.06,1.8,1.53,3.21,3.33,3.21h1.61
				l-2.3,42.36c-0.09,1.71,0.5,3.33,1.67,4.57s2.76,1.92,4.47,1.92c3.39,0,6.15-2.77,6.15-6.16V52.16
				C157,51.59,156.59,51.1,156.04,51z M154.65,165.53c0,2.1-1.71,3.81-3.8,3.81c-1.05,0-2.04-0.42-2.77-1.19s-1.09-1.77-1.03-2.83
				l2.37-43.6c0.02-0.32-0.09-0.64-0.32-0.87s-0.53-0.37-0.85-0.37h-2.85c-0.52,0-0.97-0.42-0.98-0.94
				c-0.7-19.12,2.65-39.05,10.23-60.74V165.53z"/>
		</g>
	</g>
	<g class="st1">
		<defs>
			<rect id="SVGID_11_" x="8.89" y="51.19" width="24.71" height="120.81"/>
		</defs>
		<clipPath id="SVGID_12_">
			<use xlink:href="#SVGID_11_"  style="overflow:visible;"/>
		</clipPath>
		<g class="st8">
			<path d="M25.56,95.97c0.22-0.15,0.44-0.32,0.66-0.48c3.29-2.4,7.02-5.13,7.02-8.89L32.43,59.2c-0.05-1.75-1.46-3.11-3.2-3.11
				c-1.76,0-3.2,1.44-3.2,3.21v19.42c0,0.36-0.29,0.65-0.65,0.65c-0.36,0-0.64-0.3-0.64-0.65l-0.09-23.04
				c-0.01-1.96-1.61-3.57-3.57-3.57c-1.97,0-3.57,1.6-3.57,3.57l-0.09,23.04c0,0.36-0.3,0.65-0.65,0.65s-0.65-0.3-0.65-0.65V59.29
				c0-1.77-1.43-3.21-3.2-3.21c-1.74,0-3.15,1.37-3.2,3.11L8.89,86.65c0,3.73,3.74,6.45,7.03,8.85c0.22,0.16,0.44,0.32,0.66,0.48
				l-3.41,67.52c-0.11,2.19,0.66,4.28,2.17,5.87c1.51,1.59,3.54,2.47,5.74,2.47c2.19,0,4.23-0.88,5.74-2.47
				c1.5-1.59,2.28-3.67,2.17-5.87L25.56,95.97z M25.11,167.73c-1.06,1.12-2.5,1.74-4.04,1.74c-1.54,0-2.97-0.62-4.04-1.74
				s-1.6-2.58-1.53-4.12l3.44-68.15c0.02-0.39-0.15-0.77-0.47-1c-0.38-0.28-0.78-0.57-1.18-0.87c-2.84-2.07-6.06-4.42-6.06-6.91
				l0.82-27.42c0.01-0.46,0.38-0.82,0.85-0.82c0.47,0,0.85,0.38,0.85,0.85v19.42c0,1.66,1.35,3.01,3,3.01s2.99-1.35,3-2.99
				l0.09-23.04c0-0.67,0.55-1.22,1.22-1.22c0.67,0,1.22,0.54,1.22,1.22l0.09,23.04c0.01,1.65,1.36,2.99,3,2.99c1.66,0,3-1.35,3-3.01
				V59.29c0-0.47,0.38-0.85,0.85-0.85c0.46,0,0.84,0.36,0.85,0.82l0.83,27.38c0,2.52-3.22,4.87-6.06,6.94
				c-0.41,0.3-0.81,0.59-1.19,0.87c-0.31,0.24-0.49,0.61-0.47,1l3.44,68.15C26.7,165.15,26.17,166.62,25.11,167.73z"/>
		</g>
	</g>
</g>
<g id="Capa_5">
	<g>
		<defs>
			
				<rect id="SVGID_13_" x="15.08" y="102.13" transform="matrix(0.994 -0.1093 0.1093 0.994 -16.61 6.1208)" width="64.86" height="104.77"/>
		</defs>
		<clipPath id="SVGID_14_">
			<use xlink:href="#SVGID_13_"  style="overflow:visible;"/>
		</clipPath>
		<g class="st9">
			<path class="st10" d="M47.25,101.85c0.25-0.03,1,0.23,1.65,0.57c0.62,0.37,1.79,1.33,2.61,2.19c0.81,0.84,1.92,1.99,2.47,2.5
				c0.57,0.51,3.99,4.58,7.6,9.03c3.63,4.45,7.58,9.33,8.76,10.87c1.21,1.54,3.17,4.39,4.39,6.3c1.22,1.91,2.69,4.55,3.3,5.84
				c0.92,2.04,1.12,2.77,1.43,5.61c0.26,2.69,0.25,3.58-0.12,4.92c-0.25,0.9-0.79,2.31-1.21,3.14c-0.42,0.85-1.29,2.16-1.93,2.92
				c-0.64,0.79-1.67,1.89-2.33,2.42c-0.66,0.56-1.88,1.47-2.72,2c-0.87,0.53-2.35,1.27-3.29,1.6c-0.97,0.34-2.46,0.71-3.32,0.8
				c-0.85,0.09-2.36,0.06-3.33-0.09c-0.97-0.12-2.55-0.59-3.54-0.97c-0.97-0.42-2.48-1.32-3.33-2c-0.86-0.71-2.07-2.05-2.67-3.02
				c-0.97-1.51-1.15-2.04-1.37-4.04c-0.2-1.85-0.14-2.58,0.32-3.93c0.3-0.93,1.32-2.66,2.3-3.98c0.96-1.26,2.69-3.1,3.85-4.09
				c1.16-0.96,3.03-2.3,4.15-2.97c1.11-0.67,2.55-1.46,4.31-2.26l-1.57-1.7c-0.85-0.95-3.28-3.8-5.37-6.34
				c-2.1-2.54-5.51-6.81-11.33-14.34l-2.02,1.87c-1.13,1.04-4.9,4.29-8.42,7.22c-3.49,2.93-6.98,5.79-9.14,7.36l3.24,3.97
				c1.77,2.17,5.21,6.47,7.66,9.55c2.44,3.08,5.71,7.36,7.26,9.59c1.57,2.19,3.61,5.29,4.53,6.86c0.92,1.57,2.27,4.14,3,5.74
				c0.76,1.59,1.79,4.19,2.31,5.81c0.81,2.39,1.08,3.81,1.53,7.91c0.5,4.51,0.5,5.29,0.09,7.93c-0.26,1.61-0.94,4.29-1.54,5.94
				c-0.63,1.65-1.76,3.98-2.55,5.16c-0.79,1.21-2.19,2.96-3.12,3.9c-0.94,0.94-2.77,2.41-4.11,3.28c-1.32,0.87-3.42,1.94-4.65,2.39
				c-1.47,0.53-3.13,0.92-4.93,1.12c-1.48,0.16-3.53,0.18-4.52,0.06c-1.02-0.12-2.75-0.56-3.86-0.96c-1.11-0.36-2.86-1.33-3.87-2.08
				c-1.13-0.83-2.21-1.98-2.77-2.87c-0.71-1.14-1.01-2.06-1.3-3.9c-0.27-1.73-0.32-2.91-0.08-4.18c0.15-0.97,0.63-2.64,1.04-3.72
				c0.4-1.09,1.37-3.01,2.18-4.29c0.78-1.27,2.35-3.31,3.42-4.56c1.1-1.25,3.03-3.11,4.3-4.17c1.27-1.07,3.28-2.41,4.49-3.04
				c1.2-0.62,2.83-1.29,5.11-1.83l-2.27-4.08c-1.26-2.25-3.3-5.84-4.58-8.01c-1.28-2.17-3.57-5.93-5.11-8.38
				c-1.51-2.46-4.6-7.18-6.87-10.5c-2.25-3.33-4.95-7.22-6.06-8.66c-1.08-1.41-1.99-2.87-2.03-3.24c-0.07-0.34,0.17-1.06,0.46-1.55
				c0.32-0.5,0.79-1.18,1.08-1.5c0.28-0.32,1.36-1.27,2.36-2.16c1.03-0.89,7.01-5.53,13.29-10.35c6.31-4.82,12.54-9.61,13.84-10.64
				C45.67,102.77,46.97,101.91,47.25,101.85z M32.11,117.2c-6.95,5.32-13.27,10.29-14.02,11.04c-0.76,0.74-1.37,1.45-1.33,1.56
				c0.02,0.14,0.3,0.54,0.65,0.94c0.33,0.42,1.94,2.64,3.57,4.94c1.62,2.33,4.9,7.25,7.3,10.97c2.4,3.72,5.55,8.77,7.05,11.29
				c1.48,2.49,4.06,6.97,5.71,9.96c1.66,2.99,3.07,5.84,3.12,6.3c0.08,0.45-0.09,1.08-0.32,1.33c-0.33,0.35-1.15,0.56-3.17,0.78
				c-2.68,0.29-2.79,0.33-5.3,1.94c-1.4,0.9-3.32,2.35-4.26,3.24c-0.94,0.88-2.7,2.96-3.97,4.59c-1.26,1.64-2.62,3.73-3.01,4.63
				c-0.42,0.91-0.94,2.44-1.18,3.42c-0.32,1.36-0.33,2.29-0.06,3.93c0.25,1.79,0.49,2.37,1.33,3.46c0.67,0.88,1.68,1.63,3,2.32
				c1.1,0.57,2.84,1.19,3.9,1.39c1.33,0.26,2.72,0.28,4.48,0.09c1.42-0.16,3.31-0.57,4.23-0.93c0.92-0.33,2.74-1.31,4.09-2.15
				c1.84-1.15,2.97-2.14,4.58-4.03c1.23-1.46,2.56-3.43,3.15-4.65c0.57-1.19,1.3-3.2,1.61-4.51c0.32-1.31,0.68-3.48,0.8-4.85
				c0.18-1.98,0.12-3.31-0.36-6.45c-0.41-2.72-0.94-4.89-1.65-6.89c-0.55-1.61-1.57-4.04-2.21-5.39c-0.67-1.34-2.18-4.06-3.37-5.98
				c-1.2-1.92-3.2-4.9-4.42-6.58c-1.23-1.69-4.56-5.99-7.41-9.58c-2.85-3.58-6.25-7.8-7.59-9.41c-1.3-1.62-2.59-3.35-2.82-3.88
				c-0.34-0.77-0.35-1.11-0.07-1.72c0.18-0.43,1.57-1.73,3.11-2.91c1.51-1.21,5.04-4.08,7.79-6.37c2.77-2.33,6.43-5.5,8.17-7.07
				c1.73-1.55,3.41-2.86,3.73-2.89c0.31-0.03,0.88,0.19,1.26,0.49c0.41,0.33,0.74,0.67,0.75,0.81c0.01,0.11,0.45,0.7,0.98,1.34
				c0.53,0.6,3.24,4.03,6.06,7.62c2.82,3.58,6.33,7.93,7.85,9.67c1.49,1.74,3.26,3.65,3.91,4.27c0.93,0.88,1.18,1.31,1.29,2.28
				c0.11,0.68,0.01,1.39-0.17,1.6c-0.18,0.22-0.94,0.6-1.72,0.83c-0.76,0.22-1.94,0.7-2.63,1.04c-0.69,0.34-2.2,1.25-3.39,2.05
				c-1.18,0.79-2.77,2.06-3.58,2.82c-0.78,0.78-2.03,2.27-2.72,3.33c-0.82,1.25-1.38,2.46-1.49,3.28c-0.12,0.76-0.06,1.85,0.14,2.58
				c0.19,0.7,0.68,1.75,1.12,2.33c0.44,0.59,1.4,1.49,2.16,2.01c0.75,0.52,2.06,1.19,2.88,1.5c1,0.37,2.23,0.53,3.66,0.49
				c1.61-0.06,2.57-0.26,3.81-0.76c0.91-0.36,2.38-1.16,3.27-1.75c0.88-0.62,2.35-2.02,3.26-3.16c0.97-1.21,1.95-2.81,2.32-3.86
				c0.63-1.66,0.64-2.04,0.34-4.8c-0.28-2.54-0.51-3.32-1.38-5.19c-0.59-1.21-1.91-3.51-2.96-5.16c-1.08-1.64-2.69-3.97-3.66-5.22
				c-0.95-1.26-4.79-6.02-8.53-10.61c-3.76-4.58-7.82-9.42-9.03-10.7c-1.21-1.28-2.41-2.48-2.66-2.65c-0.38-0.25-0.73-0.09-1.9,0.82
				C45.39,107.02,39.06,111.87,32.11,117.2z"/>
		</g>
	</g>
	<g>
		<defs>
			
				<rect id="SVGID_15_" x="97.25" y="121.73" transform="matrix(0.1049 -0.9945 0.9945 0.1049 -19.3691 286.808)" width="104.77" height="64.86"/>
		</defs>
		<clipPath id="SVGID_16_">
			<use xlink:href="#SVGID_15_"  style="overflow:visible;"/>
		</clipPath>
		<g class="st11">
			<path class="st10" d="M160.6,102.65c0.25,0.03,0.93,0.44,1.49,0.91c0.53,0.49,1.47,1.68,2.08,2.7c0.61,0.99,1.45,2.35,1.88,2.97
				c0.45,0.62,2.93,5.33,5.5,10.45c2.6,5.12,5.42,10.73,6.24,12.48c0.85,1.76,2.16,4.96,2.94,7.09c0.79,2.13,1.66,5.02,1.98,6.41
				c0.46,2.19,0.5,2.94,0.2,5.79c-0.31,2.68-0.52,3.55-1.17,4.78c-0.43,0.82-1.26,2.09-1.85,2.81c-0.6,0.74-1.72,1.84-2.51,2.45
				c-0.79,0.64-2.03,1.49-2.8,1.87c-0.77,0.41-2.15,1.04-3.08,1.37c-0.96,0.33-2.56,0.74-3.55,0.86c-1.02,0.12-2.55,0.16-3.41,0.07
				c-0.85-0.09-2.32-0.45-3.23-0.8c-0.92-0.33-2.37-1.12-3.26-1.7c-0.86-0.61-2.14-1.82-2.83-2.67c-0.69-0.88-1.59-2.44-1.97-3.52
				c-0.63-1.68-0.68-2.24-0.47-4.23c0.2-1.85,0.41-2.55,1.15-3.77c0.49-0.84,1.86-2.31,3.1-3.4c1.2-1.02,3.29-2.45,4.63-3.17
				c1.34-0.7,3.45-1.6,4.68-2.02c1.23-0.42,2.8-0.89,4.69-1.29l-1.18-2c-0.63-1.11-2.39-4.41-3.9-7.34
				c-1.51-2.93-3.93-7.83-8.02-16.42l-2.37,1.39c-1.32,0.78-5.7,3.15-9.76,5.26c-4.03,2.12-8.06,4.17-10.5,5.24l2.32,4.57
				c1.26,2.5,3.71,7.43,5.45,10.96c1.73,3.52,4.01,8.41,5.05,10.92c1.06,2.48,2.4,5.94,2.97,7.67c0.57,1.73,1.34,4.53,1.71,6.24
				c0.4,1.72,0.86,4.47,1.02,6.16c0.28,2.51,0.25,3.95-0.19,8.06c-0.48,4.51-0.64,5.27-1.6,7.77c-0.59,1.52-1.83,3.99-2.77,5.48
				c-0.97,1.48-2.56,3.51-3.59,4.5c-1.03,1.02-2.77,2.42-3.88,3.14c-1.12,0.72-3.21,1.76-4.72,2.33c-1.47,0.57-3.76,1.16-5.05,1.35
				c-1.55,0.21-3.25,0.23-5.05,0.04c-1.48-0.16-3.49-0.57-4.43-0.9c-0.97-0.33-2.56-1.13-3.56-1.76c-1-0.59-2.51-1.91-3.33-2.86
				c-0.92-1.05-1.73-2.41-2.09-3.4c-0.45-1.26-0.54-2.22-0.44-4.08c0.1-1.75,0.31-2.91,0.81-4.1c0.35-0.91,1.18-2.44,1.8-3.41
				c0.62-0.98,1.98-2.65,3.04-3.72c1.03-1.07,3-2.74,4.32-3.72c1.34-0.98,3.63-2.39,5.09-3.16c1.47-0.77,3.72-1.66,5.03-2.01
				c1.31-0.35,3.04-0.66,5.38-0.7l-1.34-4.47c-0.75-2.47-1.98-6.41-2.76-8.8c-0.79-2.39-2.22-6.55-3.21-9.28
				c-0.95-2.73-2.97-7.99-4.48-11.72c-1.48-3.73-3.3-8.11-4.08-9.75c-0.76-1.61-1.33-3.23-1.29-3.6c0-0.34,0.39-0.99,0.78-1.42
				c0.42-0.42,1.02-0.99,1.37-1.24c0.35-0.25,1.6-0.96,2.77-1.61c1.19-0.65,8.03-3.91,15.19-7.29c7.19-3.37,14.3-6.71,15.79-7.45
				C158.87,103.21,160.31,102.64,160.6,102.65z M142.54,114.42c-7.92,3.72-15.16,7.23-16.05,7.8c-0.9,0.56-1.65,1.12-1.63,1.24
				c-0.02,0.14,0.17,0.59,0.44,1.06c0.24,0.49,1.33,3,2.44,5.59c1.08,2.62,3.24,8.13,4.79,12.27c1.56,4.15,3.56,9.75,4.48,12.53
				c0.92,2.75,2.48,7.67,3.46,10.95c0.98,3.28,1.76,6.36,1.71,6.82c-0.02,0.46-0.31,1.03-0.6,1.23c-0.4,0.27-1.24,0.3-3.27,0.09
				c-2.68-0.28-2.8-0.27-5.59,0.77c-1.56,0.58-3.75,1.59-4.86,2.25c-1.11,0.66-3.27,2.31-4.86,3.64c-1.58,1.33-3.35,3.08-3.93,3.89
				c-0.6,0.8-1.44,2.19-1.88,3.09c-0.6,1.27-0.81,2.16-0.9,3.83c-0.13,1.81-0.02,2.42,0.57,3.67c0.47,1,1.3,1.95,2.43,2.91
				c0.95,0.79,2.52,1.77,3.52,2.19c1.24,0.54,2.59,0.85,4.36,1.04c1.42,0.15,3.36,0.15,4.33-0.01c0.97-0.13,2.96-0.7,4.46-1.23
				c2.04-0.74,3.36-1.46,5.33-2.96c1.51-1.17,3.24-2.8,4.07-3.87c0.81-1.04,1.95-2.85,2.54-4.06c0.59-1.21,1.41-3.26,1.81-4.57
				c0.6-1.9,0.82-3.2,1.02-6.38c0.17-2.75,0.12-4.98-0.15-7.08c-0.2-1.69-0.67-4.28-1.01-5.73c-0.36-1.45-1.26-4.43-2.02-6.56
				c-0.76-2.13-2.08-5.47-2.92-7.37c-0.84-1.91-3.18-6.83-5.2-10.94c-2.02-4.1-4.45-8.95-5.41-10.81c-0.93-1.86-1.81-3.83-1.93-4.39
				c-0.17-0.82-0.11-1.16,0.3-1.69c0.27-0.38,1.9-1.36,3.66-2.18c1.73-0.86,5.79-2.91,8.97-4.57c3.21-1.68,7.46-4,9.48-5.17
				c2.02-1.14,3.94-2.06,4.26-2.03c0.31,0.03,0.82,0.37,1.13,0.75c0.33,0.41,0.58,0.81,0.56,0.95c-0.01,0.11,0.29,0.78,0.68,1.52
				c0.39,0.7,2.31,4.63,4.3,8.73c1.99,4.1,4.5,9.1,5.61,11.12c1.09,2.02,2.41,4.26,2.91,5.01c0.73,1.05,0.87,1.53,0.77,2.5
				c-0.04,0.69-0.29,1.36-0.51,1.53c-0.22,0.18-1.05,0.38-1.86,0.44c-0.79,0.06-2.05,0.27-2.79,0.45c-0.74,0.18-2.42,0.75-3.74,1.28
				c-1.32,0.52-3.15,1.43-4.1,1.99c-0.93,0.6-2.47,1.79-3.37,2.67c-1.06,1.04-1.87,2.11-2.15,2.89c-0.28,0.72-0.45,1.8-0.42,2.55
				c0.04,0.73,0.29,1.85,0.6,2.52c0.31,0.67,1.05,1.76,1.68,2.43c0.62,0.67,1.76,1.6,2.49,2.08c0.9,0.58,2.06,1,3.48,1.26
				c1.58,0.28,2.56,0.3,3.88,0.06c0.97-0.16,2.58-0.62,3.57-1.01c1-0.41,2.72-1.48,3.86-2.39c1.2-0.97,2.5-2.33,3.09-3.28
				c0.97-1.49,1.06-1.85,1.36-4.62c0.27-2.54,0.21-3.36-0.24-5.37c-0.32-1.31-1.12-3.84-1.79-5.67c-0.7-1.83-1.78-4.46-2.47-5.88
				c-0.66-1.43-3.4-6.91-6.08-12.18c-2.7-5.28-5.63-10.87-6.54-12.37s-1.82-2.93-2.03-3.16c-0.32-0.32-0.7-0.25-2.03,0.39
				C157.69,107.3,150.46,110.7,142.54,114.42z"/>
		</g>
	</g>
	<g>
		<defs>
			
				<rect id="SVGID_17_" x="188.71" y="126.9" transform="matrix(0.1049 -0.9945 0.9945 0.1049 57.3619 382.3983)" width="104.77" height="64.86"/>
		</defs>
		<clipPath id="SVGID_18_">
			<use xlink:href="#SVGID_17_"  style="overflow:visible;"/>
		</clipPath>
		<g class="st12">
			<path class="st10" d="M252.06,107.82c0.25,0.03,0.93,0.44,1.49,0.91c0.53,0.49,1.47,1.68,2.08,2.7c0.61,0.99,1.45,2.35,1.88,2.97
				c0.45,0.62,2.93,5.33,5.5,10.45c2.6,5.12,5.42,10.73,6.24,12.48c0.85,1.76,2.16,4.96,2.94,7.09c0.79,2.13,1.66,5.02,1.98,6.41
				c0.46,2.19,0.5,2.94,0.2,5.79c-0.31,2.68-0.52,3.55-1.17,4.78c-0.43,0.82-1.26,2.09-1.85,2.81c-0.6,0.74-1.72,1.84-2.51,2.45
				c-0.79,0.64-2.03,1.49-2.8,1.87c-0.77,0.41-2.15,1.04-3.08,1.37c-0.96,0.33-2.56,0.74-3.55,0.86c-1.02,0.12-2.55,0.16-3.41,0.07
				c-0.85-0.09-2.32-0.45-3.23-0.8c-0.92-0.33-2.37-1.12-3.26-1.7c-0.86-0.61-2.14-1.82-2.83-2.67c-0.69-0.88-1.59-2.44-1.97-3.52
				c-0.63-1.68-0.68-2.24-0.47-4.23c0.2-1.85,0.41-2.55,1.15-3.77c0.49-0.84,1.86-2.31,3.1-3.4c1.2-1.02,3.29-2.45,4.63-3.17
				c1.34-0.7,3.45-1.6,4.68-2.02c1.23-0.42,2.8-0.89,4.69-1.29l-1.18-2c-0.63-1.11-2.39-4.41-3.9-7.34
				c-1.51-2.93-3.93-7.83-8.02-16.42l-2.37,1.39c-1.32,0.78-5.7,3.15-9.76,5.26c-4.03,2.12-8.06,4.17-10.5,5.24l2.32,4.57
				c1.26,2.5,3.71,7.43,5.45,10.96c1.73,3.52,4.01,8.41,5.05,10.92c1.06,2.48,2.4,5.94,2.97,7.67c0.57,1.73,1.34,4.53,1.71,6.24
				c0.4,1.72,0.86,4.47,1.02,6.16c0.28,2.51,0.25,3.95-0.19,8.06c-0.48,4.51-0.64,5.27-1.6,7.77c-0.59,1.52-1.83,3.99-2.77,5.48
				c-0.97,1.48-2.56,3.51-3.59,4.5c-1.03,1.02-2.77,2.42-3.88,3.14c-1.12,0.72-3.21,1.76-4.72,2.33c-1.47,0.57-3.76,1.16-5.05,1.35
				c-1.55,0.21-3.25,0.23-5.05,0.04c-1.48-0.16-3.49-0.57-4.43-0.9c-0.97-0.33-2.56-1.13-3.56-1.76c-1-0.59-2.51-1.91-3.33-2.86
				c-0.92-1.05-1.73-2.41-2.09-3.4c-0.45-1.26-0.54-2.22-0.44-4.08c0.1-1.75,0.31-2.91,0.81-4.1c0.35-0.91,1.18-2.44,1.8-3.41
				c0.62-0.98,1.98-2.65,3.04-3.72c1.03-1.07,3-2.74,4.32-3.72c1.34-0.98,3.63-2.39,5.09-3.16c1.47-0.77,3.72-1.66,5.03-2.01
				c1.31-0.35,3.04-0.66,5.38-0.7l-1.34-4.47c-0.75-2.47-1.98-6.41-2.76-8.8c-0.79-2.39-2.22-6.55-3.21-9.28
				c-0.95-2.73-2.97-7.99-4.48-11.72c-1.48-3.73-3.3-8.11-4.08-9.75c-0.76-1.61-1.33-3.23-1.29-3.6c0-0.34,0.39-0.99,0.78-1.42
				c0.42-0.42,1.02-0.99,1.37-1.24c0.35-0.25,1.6-0.96,2.77-1.61c1.19-0.65,8.03-3.91,15.19-7.29c7.19-3.37,14.3-6.71,15.79-7.45
				C250.33,108.38,251.78,107.81,252.06,107.82z M234,119.59c-7.92,3.72-15.16,7.23-16.05,7.8c-0.9,0.56-1.65,1.12-1.63,1.24
				c-0.02,0.14,0.17,0.59,0.44,1.06c0.24,0.49,1.33,3,2.44,5.59c1.08,2.62,3.24,8.13,4.79,12.27c1.56,4.15,3.56,9.75,4.48,12.53
				c0.92,2.75,2.48,7.67,3.46,10.95c0.98,3.28,1.76,6.36,1.71,6.82c-0.02,0.46-0.31,1.03-0.6,1.23c-0.4,0.27-1.24,0.3-3.27,0.09
				c-2.68-0.28-2.8-0.27-5.59,0.77c-1.56,0.58-3.75,1.59-4.86,2.25c-1.11,0.66-3.27,2.31-4.86,3.64c-1.58,1.33-3.35,3.08-3.93,3.89
				c-0.6,0.8-1.44,2.19-1.88,3.09c-0.6,1.27-0.81,2.16-0.9,3.83c-0.13,1.81-0.02,2.42,0.57,3.67c0.47,1,1.3,1.95,2.43,2.91
				c0.95,0.79,2.52,1.77,3.52,2.19c1.24,0.54,2.59,0.85,4.36,1.04c1.42,0.15,3.36,0.15,4.33-0.01c0.97-0.13,2.96-0.7,4.46-1.23
				c2.04-0.74,3.36-1.46,5.33-2.96c1.51-1.17,3.24-2.8,4.07-3.87c0.81-1.04,1.95-2.85,2.54-4.06s1.41-3.26,1.81-4.57
				c0.6-1.9,0.82-3.2,1.02-6.38c0.17-2.75,0.12-4.98-0.15-7.08c-0.2-1.69-0.67-4.28-1.01-5.73c-0.36-1.45-1.26-4.43-2.02-6.56
				c-0.76-2.13-2.08-5.47-2.92-7.37c-0.84-1.91-3.18-6.83-5.2-10.94c-2.02-4.1-4.45-8.95-5.41-10.81c-0.93-1.86-1.81-3.83-1.93-4.39
				c-0.17-0.82-0.11-1.16,0.3-1.69c0.27-0.38,1.9-1.36,3.66-2.18c1.73-0.86,5.79-2.91,8.97-4.57c3.21-1.68,7.46-4,9.48-5.17
				c2.02-1.14,3.94-2.06,4.26-2.03c0.31,0.03,0.82,0.37,1.13,0.75c0.33,0.41,0.58,0.81,0.56,0.95c-0.01,0.11,0.29,0.78,0.68,1.52
				c0.39,0.7,2.31,4.63,4.3,8.73c1.99,4.1,4.5,9.1,5.61,11.12c1.09,2.02,2.41,4.26,2.91,5.01c0.73,1.05,0.87,1.53,0.77,2.5
				c-0.04,0.69-0.29,1.36-0.51,1.53c-0.22,0.18-1.05,0.38-1.86,0.44c-0.79,0.06-2.05,0.27-2.79,0.45c-0.74,0.18-2.42,0.75-3.74,1.28
				c-1.32,0.52-3.15,1.43-4.1,1.99c-0.93,0.6-2.47,1.79-3.37,2.67c-1.06,1.04-1.87,2.11-2.15,2.89c-0.28,0.72-0.45,1.8-0.42,2.55
				c0.04,0.73,0.29,1.85,0.6,2.52c0.31,0.67,1.05,1.76,1.68,2.43c0.62,0.67,1.76,1.6,2.49,2.08c0.9,0.58,2.06,1,3.48,1.26
				c1.58,0.28,2.56,0.3,3.88,0.06c0.97-0.16,2.58-0.62,3.57-1.01c1-0.41,2.72-1.48,3.86-2.39c1.2-0.97,2.5-2.33,3.09-3.28
				c0.97-1.49,1.06-1.85,1.36-4.62c0.27-2.54,0.21-3.36-0.24-5.37c-0.32-1.31-1.12-3.84-1.79-5.67c-0.7-1.83-1.78-4.46-2.47-5.88
				c-0.66-1.43-3.4-6.91-6.08-12.18c-2.7-5.28-5.63-10.87-6.54-12.37s-1.82-2.93-2.03-3.16c-0.32-0.32-0.7-0.25-2.03,0.39
				C249.15,112.47,241.93,115.87,234,119.59z"/>
		</g>
	</g>
	<path d="M58.64,52.72c5.85-5.64,14.9-7.72,22.56-5.04c0.28,0.1,0.43,0.41,0.33,0.69c-0.09,0.26-0.36,0.41-0.63,0.35
		c-3.59-0.81-7.39-0.52-10.84,0.68c-3.35,1.15-6.42,3.19-8.63,5.91c-0.67,0.82-1.87,0.95-2.69,0.28
		C57.85,54.87,57.81,53.5,58.64,52.72z"/>
	<path d="M70.38,34.35c6.12,1.67,11.41,6.14,13.93,11.94c0.11,0.25-0.01,0.54-0.25,0.65c-0.22,0.09-0.48,0.01-0.6-0.19
		c-1.57-2.45-3.68-4.48-6.07-5.96s-5.07-2.42-7.74-2.7c-1.05-0.11-1.81-1.05-1.7-2.1C68.06,34.81,69.26,34.01,70.38,34.35z"/>
	<path d="M66.86,17.99c10.5,6.36,18.39,16.87,21.44,28.72c0.07,0.28-0.09,0.56-0.37,0.62c-0.26,0.07-0.53-0.08-0.61-0.33
		c-3.76-11.03-11.96-20.48-22.31-25.7c-0.94-0.47-1.32-1.62-0.84-2.55C64.66,17.77,65.92,17.42,66.86,17.99L66.86,17.99z"/>
	<path d="M84.42,21.71c2.94,4.58,4.32,10.07,3.85,15.4c-0.05,0.45-0.7,0.46-0.76,0.01c-0.28-2.51-0.97-4.94-2.02-7.15
		c-1.05-2.22-2.43-4.23-4.08-5.92c-0.74-0.75-0.72-1.97,0.04-2.7C82.31,20.5,83.8,20.68,84.42,21.71z"/>
	<path d="M86.48,71.46c1.73-4.68,2.46-9.63,2.05-13.88c-0.04-0.36-0.44-0.17-0.47,0.23c-0.11,2.16-0.5,4.37-1.1,6.52
		c-0.6,2.15-1.41,4.23-2.4,6.13c-0.44,0.85-0.4,1.85,0.08,2.22C85.2,73.11,86.12,72.5,86.48,71.46L86.48,71.46z"/>
	<path d="M68.55,67.46c2.65-4.75,6.85-8.56,11.79-10.66c0.42-0.17,0.74,0.4,0.36,0.66c-2.09,1.43-3.9,3.19-5.36,5.15
		c-1.47,1.97-2.59,4.14-3.3,6.38c-0.32,1-1.4,1.56-2.41,1.24C68.48,69.89,67.94,68.5,68.55,67.46L68.55,67.46z"/>
	<g>
		<defs>
			<rect id="SVGID_19_" x="89.35" y="10.63" width="11.98" height="37.1"/>
		</defs>
		<clipPath id="SVGID_20_">
			<use xlink:href="#SVGID_19_"  style="overflow:visible;"/>
		</clipPath>
		<g class="st13">
			<path d="M100.78,13.68C95.39,23.9,92,35.29,90.97,46.99c-0.02,0.23-0.22,0.4-0.45,0.38c-0.22-0.02-0.38-0.21-0.38-0.42
				c0.05-11.86,2.49-23.8,7.21-34.9c0.41-0.97,1.53-1.42,2.5-1.01C100.87,11.46,101.3,12.7,100.78,13.68z"/>
		</g>
	</g>
	<path d="M104.65,31.53c-4.16,3.03-7.78,6.98-10.51,11.56c-0.13,0.21-0.4,0.28-0.61,0.16c-0.19-0.11-0.27-0.34-0.19-0.54
		c1.91-5.11,4.9-9.92,8.8-14.03c0.73-0.76,1.94-0.8,2.71-0.07C105.7,29.41,105.61,30.85,104.65,31.53z"/>
	<path d="M100.84,71.62c-1.2-5-3.45-9.85-6.64-14.13c-0.15-0.2-0.1-0.48,0.09-0.62c0.18-0.14,0.42-0.11,0.57,0.03
		c3.99,3.73,7.29,8.33,9.58,13.51c0.43,0.96-0.01,2.09-0.98,2.52C102.4,73.41,101.1,72.76,100.84,71.62L100.84,71.62z"/>
	<path d="M123.24,33.44c-10.98,2.96-21.41,8.31-30.34,15.65c-0.23,0.19-0.56,0.16-0.75-0.07c-0.18-0.21-0.16-0.53,0.04-0.72
		c8.43-8.13,18.68-14.49,29.9-18.49c0.99-0.36,2.09,0.16,2.44,1.15C124.92,32,124.31,33.16,123.24,33.44z"/>
	<path d="M112.29,49.82c-3.67-1.91-8.09-2.48-12.21-1.6c-0.32,0.07-0.63-0.14-0.7-0.45c-0.06-0.28,0.09-0.56,0.34-0.67
		c4.34-1.87,9.34-2.16,13.95-0.83c1.04,0.28,1.65,1.35,1.35,2.38C114.7,49.81,113.34,50.38,112.29,49.82L112.29,49.82z"/>
	<path d="M56.66,69.95c6.89-10.14,17.82-17.47,29.85-19.9c0.28-0.05,0.55,0.12,0.6,0.41c0.06,0.26-0.1,0.52-0.36,0.59
		c-11.23,3.18-21.11,10.87-26.86,20.92c-0.52,0.92-1.69,1.23-2.6,0.71C56.32,72.13,56.03,70.86,56.66,69.95z"/>
	<path d="M115.66,77.67c-5.96-9.9-13.97-18.7-23.46-25.65c-0.19-0.14-0.23-0.4-0.09-0.58c0.13-0.18,0.37-0.22,0.56-0.11
		c10.14,6.2,19.11,14.47,26.18,24.25c0.61,0.85,0.42,2.04-0.43,2.66C117.51,78.89,116.23,78.62,115.66,77.67z"/>
	<path d="M91.68,88.08c1.78-11.41,1.28-23.28-1.53-34.69c-0.06-0.22,0.08-0.45,0.3-0.5c0.21-0.06,0.43,0.07,0.5,0.27
		c3.8,11.24,5.38,23.32,4.52,35.35c-0.07,1.05-0.99,1.84-2.04,1.76C92.32,90.2,91.5,89.17,91.68,88.08z"/>
	<path d="M75.51,85.24c1.98-11.17,6.4-22.01,12.94-31.53c0.17-0.24,0.1-0.57-0.14-0.74c-0.23-0.16-0.54-0.11-0.72,0.1
		c-7.36,9.1-12.82,19.84-15.81,31.35c-0.27,1.02,0.34,2.06,1.37,2.33C74.22,87.03,75.32,86.32,75.51,85.24z"/>
	<g>
		<defs>
			<rect id="SVGID_21_" x="49.5" y="41.08" width="27.87" height="3.99"/>
		</defs>
		<clipPath id="SVGID_22_">
			<use xlink:href="#SVGID_21_"  style="overflow:visible;"/>
		</clipPath>
		<g class="st14">
			<path d="M51.31,45.01c7.89-1.93,16.27-2.17,24.39-0.66c0.21,0.04,0.41-0.1,0.44-0.3c0.04-0.2-0.08-0.38-0.27-0.44
				c-8.08-2.18-16.7-2.64-25.1-1.27c-0.74,0.11-1.25,0.82-1.13,1.56C49.76,44.68,50.54,45.19,51.31,45.01z"/>
		</g>
	</g>
	<path d="M118.19,64.67c-5.58-5.88-12.49-10.62-20.14-13.74c-0.2-0.08-0.29-0.3-0.21-0.49c0.07-0.18,0.28-0.28,0.46-0.21
		c7.97,2.54,15.46,6.81,21.79,12.5c0.56,0.5,0.6,1.36,0.1,1.92C119.66,65.24,118.73,65.25,118.19,64.67z"/>
	<path d="M125.69,68.46c4.25-2.42,9.58-2.87,14.12-1.08c0.19,0.07,0.29,0.29,0.21,0.48c-0.07,0.18-0.25,0.27-0.43,0.23
		c-2.19-0.48-4.45-0.43-6.56,0.06s-4.08,1.44-5.69,2.74c-0.63,0.51-1.56,0.41-2.08-0.22C124.68,69.97,124.89,68.88,125.69,68.46z"/>
	<path d="M129.77,59.31c4.1,0.88,7.86,3.12,10.52,6.28c0.22,0.28-0.13,0.63-0.41,0.42c-1.52-1.22-3.23-2.16-5.01-2.79
		c-1.78-0.64-3.64-0.98-5.46-1c-0.82-0.01-1.47-0.68-1.46-1.49C127.96,59.79,128.87,59.09,129.77,59.31z"/>
	<path d="M149.63,77.87c-1.62-3.49-3.93-6.58-6.48-8.67c-0.22-0.18-0.33,0.15-0.14,0.38c1.12,1.23,2.12,2.65,2.97,4.14
		c0.85,1.5,1.54,3.07,2.05,4.65c0.23,0.7,0.79,1.23,1.26,1.17C149.84,79.47,150,78.64,149.63,77.87z"/>
	<path d="M136.46,81.19c0.02-4.19,1.44-8.32,3.99-11.57c0.22-0.27,0.65-0.01,0.49,0.31c-0.88,1.74-1.45,3.6-1.71,5.47
		c-0.25,1.87-0.21,3.75,0.15,5.53c0.16,0.8-0.36,1.57-1.16,1.73C137.31,82.85,136.43,82.12,136.46,81.19z"/>
	<path d="M141.48,52.78c-0.6,3.92-0.42,8.03,0.6,12.02c0.05,0.18-0.07,0.37-0.25,0.42c-0.17,0.04-0.33-0.04-0.4-0.19
		c-1.76-3.82-2.76-8.07-2.89-12.43c-0.02-0.81,0.62-1.49,1.44-1.51C140.9,51.05,141.63,51.89,141.48,52.78z"/>
	<g>
		<defs>
			
				<rect id="SVGID_23_" x="149.79" y="59.83" transform="matrix(0.1049 -0.9945 0.9945 0.1049 70.4454 212.2414)" width="6.66" height="14.32"/>
		</defs>
		<clipPath id="SVGID_24_">
			<use xlink:href="#SVGID_23_"  style="overflow:visible;"/>
		</clipPath>
		<g class="st15">
			<path d="M157.54,69.81c-3.15-2.41-6.86-4.22-10.85-5.24c-0.18-0.05-0.29-0.24-0.25-0.42c0.04-0.17,0.2-0.27,0.36-0.26
				c4.21,0.3,8.42,1.46,12.31,3.45c0.73,0.37,1.01,1.26,0.64,1.98C159.35,70.13,158.26,70.38,157.54,69.81z"/>
		</g>
	</g>
	<path d="M153.69,56.21c-3.13,0.63-6.05,2.43-8.08,4.95c-0.16,0.2-0.44,0.23-0.64,0.07c-0.17-0.14-0.22-0.37-0.12-0.56
		c1.69-3.22,4.54-5.82,7.95-7.25c0.75-0.33,1.64,0.01,1.96,0.77C155.13,55.03,154.6,56.03,153.69,56.21z"/>
	<path d="M64.34,107.52c4.24-2.42,9.57-2.87,14.11-1.08c0.19,0.08,0.29,0.3,0.21,0.49c-0.07,0.17-0.25,0.27-0.43,0.23
		c-2.19-0.48-4.45-0.44-6.56,0.06c-2.11,0.49-4.08,1.44-5.69,2.74c-0.63,0.51-1.56,0.42-2.08-0.22
		C63.32,109.04,63.54,107.95,64.34,107.52z"/>
	<path d="M68.41,98.37c4.1,0.89,7.86,3.13,10.52,6.29c0.22,0.27-0.12,0.63-0.41,0.42c-1.52-1.22-3.23-2.15-5.01-2.79
		c-1.78-0.63-3.64-0.97-5.46-1c-0.82-0.01-1.47-0.68-1.46-1.49C66.6,98.86,67.51,98.15,68.41,98.37z"/>
	<path d="M88.27,116.94c-1.62-3.49-3.93-6.59-6.48-8.68c-0.21-0.17-0.33,0.15-0.13,0.38c1.12,1.24,2.12,2.65,2.97,4.15
		c0.85,1.49,1.54,3.07,2.05,4.65c0.22,0.7,0.79,1.22,1.26,1.16C88.48,118.53,88.64,117.71,88.27,116.94z"/>
	<path d="M75.1,120.25c0.02-4.19,1.44-8.32,3.99-11.57c0.22-0.27,0.65-0.01,0.49,0.32c-0.88,1.74-1.45,3.6-1.7,5.47
		c-0.26,1.87-0.21,3.75,0.15,5.53c0.16,0.8-0.36,1.58-1.17,1.73C75.95,121.92,75.07,121.18,75.1,120.25z"/>
	<path d="M80.13,91.85c-0.6,3.91-0.42,8.03,0.6,12.01c0.05,0.19-0.06,0.37-0.25,0.42c-0.16,0.04-0.33-0.04-0.4-0.19
		c-1.75-3.82-2.76-8.07-2.88-12.43c-0.02-0.81,0.62-1.49,1.44-1.51C79.54,90.12,80.27,90.95,80.13,91.85z"/>
	<path d="M94.45,111.13c-3.39-2.07-7.27-3.49-11.34-4.08c-0.19-0.03-0.32-0.2-0.29-0.39c0.02-0.17,0.16-0.29,0.33-0.3
		c4.21-0.14,8.53,0.57,12.6,2.14c0.76,0.29,1.14,1.14,0.85,1.9C96.27,111.25,95.22,111.6,94.45,111.13z"/>
	<path d="M90.29,98.89c-3.04,0.96-5.76,3.05-7.52,5.78c-0.14,0.21-0.42,0.27-0.63,0.14c-0.19-0.12-0.25-0.35-0.18-0.55
		c1.34-3.38,3.9-6.26,7.14-8.05c0.72-0.41,1.64-0.16,2.03,0.57C91.59,97.57,91.17,98.62,90.29,98.89z"/>
	<g>
		<defs>
			<rect id="SVGID_25_" x="105.33" y="78.37" width="14.65" height="64.98"/>
		</defs>
		<clipPath id="SVGID_26_">
			<use xlink:href="#SVGID_25_"  style="overflow:visible;"/>
		</clipPath>
		<g class="st16">
			<path d="M105.61,79.56c0.23-0.06,0.46,0,0.59,0.2c5.46,8.91,12.54,63.59,12.54,63.59c-4.79-34.41-13.17-62.63-13.17-62.63
				S105.22,79.65,105.61,79.56L105.61,79.56z"/>
		</g>
	</g>
	<path d="M131.34,87.63c-0.12-0.03-0.24,0-0.31,0.1c-2.85,4.66-6.55,33.23-6.55,33.23c2.5-17.98,6.88-32.73,6.88-32.73
		S131.54,87.68,131.34,87.63z"/>
	<path d="M91.31,113.48c0.09-0.07,0.22-0.09,0.32-0.03c4.46,3.16,19.13,27.99,19.13,27.99c-9.39-15.55-19.23-27.4-19.23-27.4
		S91.14,113.6,91.31,113.48z"/>
	<path d="M165.74,36.32c7.19-3.78,16.46-3.25,23.07,1.47c0.24,0.17,0.3,0.51,0.13,0.75c-0.16,0.22-0.46,0.29-0.7,0.16
		c-3.23-1.78-6.95-2.56-10.59-2.38c-3.54,0.17-7.06,1.27-9.94,3.26c-0.87,0.6-2.06,0.39-2.66-0.48
		C164.38,38.16,164.72,36.83,165.74,36.32z"/>
	<path d="M182.15,21.96c5.41,3.32,9.24,9.09,10.04,15.36c0.04,0.27-0.15,0.51-0.43,0.55c-0.24,0.03-0.46-0.12-0.53-0.35
		c-0.82-2.79-2.28-5.33-4.16-7.42s-4.19-3.74-6.68-4.76c-0.98-0.4-1.44-1.51-1.04-2.49C179.79,21.75,181.16,21.32,182.15,21.96z"/>
	<path d="M183.35,5.27c8.31,9.04,12.94,21.34,12.56,33.57c-0.01,0.29-0.25,0.51-0.53,0.5c-0.27-0.01-0.49-0.22-0.5-0.49
		c-0.53-11.64-5.75-23.01-14.24-30.91c-0.77-0.72-0.82-1.92-0.09-2.69C181.29,4.45,182.6,4.45,183.35,5.27L183.35,5.27z"/>
	<path d="M199.16,13.75c1.55,5.22,1.34,10.87-0.61,15.86c-0.17,0.42-0.8,0.25-0.73-0.21c0.44-2.49,0.45-5.01,0.06-7.43
		c-0.38-2.42-1.15-4.74-2.26-6.82c-0.5-0.93-0.14-2.09,0.8-2.59C197.47,11.99,198.85,12.59,199.16,13.75z"/>
	<path d="M187.23,62.09c2.97-4.01,5.05-8.56,5.85-12.76c0.06-0.36-0.38-0.28-0.51,0.09c-0.71,2.04-1.7,4.06-2.88,5.95
		c-1.18,1.9-2.54,3.67-4.02,5.22c-0.66,0.7-0.9,1.66-0.54,2.16C185.54,63.32,186.59,62.99,187.23,62.09L187.23,62.09z"/>
	<path d="M171.14,53.24c3.87-3.82,8.97-6.3,14.3-6.94c0.45-0.05,0.6,0.59,0.16,0.74c-2.41,0.79-4.64,1.98-6.59,3.45
		c-1.96,1.48-3.64,3.25-4.95,5.21c-0.59,0.87-1.78,1.11-2.66,0.52C170.38,55.55,170.26,54.06,171.14,53.24L171.14,53.24z"/>
	<g>
		<defs>
			
				<rect id="SVGID_27_" x="189.01" y="17.99" transform="matrix(0.2796 -0.9601 0.9601 0.2796 126.5027 216.5571)" width="37.1" height="11.98"/>
		</defs>
		<clipPath id="SVGID_28_">
			<use xlink:href="#SVGID_27_"  style="overflow:visible;"/>
		</clipPath>
		<g class="st17">
			<path d="M217.12,10.62c-8.04,8.3-14.47,18.29-18.74,29.24c-0.08,0.21-0.33,0.32-0.54,0.24c-0.2-0.08-0.31-0.31-0.25-0.51
				c3.37-11.37,9.05-22.16,16.68-31.5c0.67-0.81,1.87-0.94,2.68-0.27C217.82,8.51,217.89,9.82,217.12,10.62z"/>
		</g>
	</g>
	<path d="M215.84,28.83c-4.84,1.75-9.42,4.52-13.33,8.16c-0.18,0.17-0.46,0.16-0.63-0.02c-0.15-0.16-0.16-0.4-0.03-0.57
		c3.26-4.38,7.48-8.16,12.37-11.01c0.91-0.53,2.09-0.22,2.62,0.69C217.44,27.09,216.95,28.45,215.84,28.83z"/>
	<path d="M200.97,66.26c0.24-5.14-0.56-10.42-2.42-15.43c-0.08-0.23,0.03-0.49,0.26-0.57c0.21-0.08,0.43,0.01,0.54,0.19
		c2.79,4.7,4.67,10.04,5.42,15.65c0.14,1.04-0.59,2-1.64,2.14C201.97,68.41,200.9,67.43,200.97,66.26L200.97,66.26z"/>
	<path d="M233.15,35.86c-11.37-0.23-22.88,1.99-33.5,6.55c-0.27,0.12-0.58-0.01-0.7-0.28c-0.11-0.25,0-0.55,0.24-0.68
		c10.37-5.44,21.99-8.69,33.88-9.39c1.05-0.07,1.96,0.73,2.02,1.79C235.17,34.95,234.26,35.89,233.15,35.86z"/>
	<path d="M218.06,48.53c-2.99-2.86-7.07-4.64-11.28-4.95c-0.33-0.03-0.57-0.31-0.55-0.63c0.02-0.29,0.24-0.51,0.52-0.54
		c4.69-0.58,9.57,0.54,13.62,3.1c0.92,0.55,1.21,1.76,0.63,2.66C220.38,49.19,218.91,49.37,218.06,48.53L218.06,48.53z"/>
	<path d="M159.02,52.3c9.45-7.81,21.99-11.79,34.22-10.76c0.28,0.03,0.49,0.27,0.47,0.56c-0.02,0.27-0.25,0.47-0.52,0.47
		c-11.67-0.08-23.31,4.53-31.63,12.57c-0.76,0.73-1.96,0.71-2.7-0.04C158.08,54.3,158.16,53,159.02,52.3z"/>
	<path d="M213.51,76.21c-2.95-11.18-8.19-21.86-15.35-31.19c-0.14-0.18-0.11-0.44,0.07-0.59c0.17-0.13,0.42-0.11,0.56,0.05
		c8,8.78,14.3,19.23,18.36,30.6c0.35,0.99-0.17,2.08-1.16,2.43C214.95,77.9,213.79,77.28,213.51,76.21z"/>
	<path d="M187.58,79.5c4.9-10.45,7.74-22,8.22-33.73c0.01-0.23,0.2-0.41,0.43-0.4c0.22,0,0.4,0.19,0.4,0.4
		c0.51,11.85-1.36,23.89-5.54,35.21c-0.36,0.98-1.46,1.49-2.45,1.12C187.6,81.72,187.1,80.5,187.58,79.5z"/>
	<path d="M172.84,72.25c5.03-10.17,12.3-19.35,21.24-26.66c0.23-0.19,0.26-0.52,0.08-0.75c-0.18-0.22-0.49-0.26-0.72-0.1
		c-9.61,6.68-17.85,15.47-23.95,25.68c-0.54,0.9-0.25,2.07,0.66,2.61C171.1,73.61,172.36,73.24,172.84,72.25z"/>
	<g>
		<defs>
			
				<rect id="SVGID_29_" x="171.04" y="14.46" transform="matrix(0.2796 -0.9601 0.9601 0.2796 97.3942 186.593)" width="3.99" height="27.87"/>
		</defs>
		<clipPath id="SVGID_30_">
			<use xlink:href="#SVGID_29_"  style="overflow:visible;"/>
		</clipPath>
		<g class="st18">
			<path d="M160.85,26.86c8.11,0.35,16.23,2.46,23.6,6.19c0.19,0.09,0.42,0.02,0.51-0.17c0.09-0.18,0.03-0.39-0.14-0.5
				c-7.15-4.35-15.29-7.2-23.74-8.24c-0.75-0.1-1.43,0.44-1.52,1.18C159.46,26.11,160.07,26.82,160.85,26.86z"/>
		</g>
	</g>
	<path d="M219.57,64.44c-3.71-7.21-9.02-13.69-15.49-18.82c-0.17-0.13-0.2-0.37-0.06-0.53c0.12-0.15,0.34-0.19,0.5-0.08
		c6.95,4.67,12.94,10.87,17.42,18.09c0.39,0.64,0.2,1.48-0.44,1.88C220.83,65.4,219.93,65.15,219.57,64.44z"/>
	<path d="M225.72,70.17c4.76-1.14,10-0.07,13.86,2.91c0.16,0.12,0.19,0.36,0.06,0.52c-0.11,0.15-0.32,0.19-0.48,0.1
		c-1.97-1.07-4.15-1.66-6.32-1.78c-2.17-0.12-4.32,0.24-6.23,1.04c-0.75,0.31-1.61-0.04-1.93-0.79
		C224.32,71.34,224.83,70.36,225.72,70.17z"/>
	<path d="M232.2,62.53c3.69,2,6.67,5.19,8.34,8.97c0.13,0.33-0.3,0.57-0.51,0.29c-1.12-1.6-2.5-2.98-4.03-4.08
		c-1.53-1.11-3.22-1.96-4.96-2.49c-0.78-0.24-1.22-1.06-0.98-1.84C230.32,62.49,231.39,62.06,232.2,62.53z"/>
	<path d="M246.07,85.9c-0.58-3.8-1.93-7.42-3.79-10.14c-0.16-0.23-0.36,0.05-0.24,0.33c0.73,1.5,1.3,3.14,1.69,4.81
		c0.4,1.68,0.62,3.38,0.67,5.03c0.02,0.74,0.42,1.4,0.88,1.47C245.82,87.49,246.21,86.74,246.07,85.9z"/>
	<path d="M232.49,85.41c1.19-4.02,3.7-7.58,7.07-9.99c0.29-0.2,0.62,0.18,0.39,0.44c-1.33,1.43-2.39,3.05-3.17,4.77
		c-0.77,1.73-1.25,3.54-1.41,5.35c-0.07,0.81-0.78,1.41-1.6,1.34C232.84,87.24,232.21,86.29,232.49,85.41z"/>
	<path d="M245.26,59.54c-1.67,3.59-2.65,7.59-2.78,11.71c-0.01,0.19-0.17,0.34-0.36,0.33c-0.17-0.01-0.31-0.13-0.33-0.29
		c-0.62-4.16-0.39-8.52,0.7-12.74c0.21-0.78,1.01-1.26,1.8-1.05C245.18,57.71,245.66,58.72,245.26,59.54z"/>
	<g>
		<defs>
			
				<rect id="SVGID_31_" x="246.44" y="71.32" transform="matrix(0.2796 -0.9601 0.9601 0.2796 104.5848 296.3464)" width="6.66" height="14.32"/>
		</defs>
		<clipPath id="SVGID_32_">
			<use xlink:href="#SVGID_31_"  style="overflow:visible;"/>
		</clipPath>
		<g class="st19">
			<path d="M253.62,82.05c-2.67-2.93-6-5.37-9.75-7.09c-0.17-0.08-0.25-0.28-0.17-0.46c0.07-0.16,0.24-0.23,0.4-0.19
				c4.09,1.04,8.03,2.93,11.5,5.58c0.65,0.49,0.77,1.42,0.28,2.06C255.35,82.68,254.23,82.73,253.62,82.05z"/>
		</g>
	</g>
	<path d="M253.05,69.14c-3.19,0.07-6.38,1.32-8.83,3.44c-0.19,0.17-0.48,0.14-0.64-0.05c-0.15-0.17-0.15-0.41-0.02-0.57
		c2.23-2.87,5.5-4.92,9.11-5.73c0.8-0.2,1.61,0.3,1.8,1.11C254.67,68.23,253.97,69.12,253.05,69.14z"/>
	<path d="M155.89,90.52c4.75-1.14,9.99-0.08,13.85,2.91c0.16,0.13,0.2,0.37,0.07,0.53c-0.11,0.15-0.32,0.18-0.48,0.1
		c-1.97-1.08-4.15-1.66-6.32-1.78c-2.17-0.12-4.32,0.24-6.23,1.04c-0.75,0.31-1.61-0.04-1.93-0.79
		C154.49,91.7,155,90.71,155.89,90.52z"/>
	<path d="M162.36,82.88c3.69,2,6.67,5.2,8.34,8.98c0.14,0.32-0.3,0.57-0.51,0.29c-1.12-1.59-2.5-2.97-4.03-4.08
		c-1.54-1.11-3.22-1.95-4.96-2.48c-0.78-0.24-1.22-1.06-0.98-1.84C160.49,82.84,161.56,82.42,162.36,82.88z"/>
	<path d="M176.24,106.26c-0.58-3.8-1.93-7.42-3.8-10.14c-0.16-0.22-0.36,0.05-0.23,0.33c0.73,1.5,1.29,3.14,1.69,4.81
		c0.4,1.67,0.62,3.38,0.67,5.03c0.02,0.74,0.42,1.39,0.88,1.47C175.99,107.84,176.38,107.1,176.24,106.26z"/>
	<path d="M162.66,105.76c1.19-4.02,3.71-7.58,7.07-9.99c0.29-0.2,0.63,0.18,0.39,0.44c-1.33,1.42-2.39,3.05-3.16,4.77
		c-0.77,1.72-1.25,3.54-1.41,5.35c-0.07,0.81-0.79,1.41-1.6,1.34C163.01,107.6,162.37,106.64,162.66,105.76z"/>
	<path d="M175.43,79.89c-1.67,3.59-2.65,7.59-2.78,11.7c-0.01,0.19-0.16,0.34-0.36,0.33c-0.17-0.01-0.3-0.13-0.33-0.3
		c-0.61-4.16-0.4-8.52,0.71-12.74c0.21-0.78,1.01-1.26,1.8-1.05C175.35,78.07,175.82,79.07,175.43,79.89z"/>
	<path d="M183.79,102.4c-2.67-2.93-6-5.38-9.75-7.09c-0.18-0.08-0.25-0.28-0.17-0.46c0.07-0.15,0.24-0.23,0.4-0.19
		c4.08,1.04,8.03,2.93,11.5,5.58c0.65,0.49,0.77,1.42,0.28,2.06C185.51,103.03,184.4,103.08,183.79,102.4z"/>
	<path d="M183.22,89.49c-3.19,0.07-6.38,1.32-8.83,3.45c-0.19,0.16-0.48,0.14-0.64-0.05c-0.15-0.17-0.15-0.41-0.02-0.58
		c2.23-2.87,5.5-4.92,9.1-5.73c0.8-0.19,1.62,0.31,1.79,1.11C184.84,88.59,184.14,89.48,183.22,89.49z"/>
	<g>
		<defs>
			
				<rect id="SVGID_33_" x="168.86" y="99.91" transform="matrix(0.2796 -0.9601 0.9601 0.2796 42.0931 270.5667)" width="64.98" height="14.65"/>
		</defs>
		<clipPath id="SVGID_34_">
			<use xlink:href="#SVGID_33_"  style="overflow:visible;"/>
		</clipPath>
		<g class="st20">
			<path d="M203.33,75.21c0.24,0.01,0.44,0.13,0.51,0.35c2.75,10.08-5.74,64.56-5.74,64.56c5.03-34.38,4.87-63.82,4.87-63.82
				S202.93,75.19,203.33,75.21L203.33,75.21z"/>
		</g>
	</g>
	<path d="M225.78,90.16c-0.11-0.06-0.23-0.07-0.32,0.01c-4.04,3.67-15.59,30.08-15.59,30.08c7.43-16.57,15.76-29.5,15.76-29.5
		S225.96,90.26,225.78,90.16z"/>
	<path d="M180.03,105.67c0.11-0.06,0.23-0.05,0.32,0.03c3.83,3.9,13.86,30.93,13.86,30.93c-6.48-16.97-14.06-30.37-14.06-30.37
		S179.84,105.76,180.03,105.67z"/>
</g>
</svg>
