<?xml version="1.0" encoding="utf-8"?>
<!-- Generator: Adobe Illustrator 23.0.3, SVG Export Plug-In . SVG Version: 6.00 Build 0)  -->
<svg version="1.1" xmlns="http://www.w3.org/2000/svg" xmlns:xlink="http://www.w3.org/1999/xlink" x="0px" y="0px"
	 viewBox="0 0 300 223" style="enable-background:new 0 0 300 223;" xml:space="preserve">
<style type="text/css">
	.st0{display:none;}
	.st1{display:inline;}
	.st2{clip-path:url(#SVGID_2_);}
	.st3{clip-path:url(#SVGID_4_);}
</style>
<g id="Capa_1" class="st0">
	<g class="st1">
		<defs>
			<rect id="SVGID_1_" x="7.29" y="7.99" width="290.71" height="207.26"/>
		</defs>
		<clipPath id="SVGID_2_">
			<use xlink:href="#SVGID_1_"  style="overflow:visible;"/>
		</clipPath>
		<g class="st2">
			<path d="M288.74,158.83c-4.48,10.59-10.89,20.1-19.04,28.26c-8.17,8.17-17.67,14.58-28.25,19.06
				c-10.95,4.64-22.59,6.99-34.59,6.99c-12,0-23.64-2.35-34.6-6.99c-0.65-0.27-1.33-0.57-2.21-0.97c-8.1-3.7-15.59-8.57-22.24-14.5
				c-1.29-1.14-2.56-2.35-3.8-3.59c-0.19-0.18-0.37-0.36-0.55-0.55c0,0,0,0,0,0c-5.27-5.36-9.83-11.35-13.56-17.79
				c-1.84-3.19-3.5-6.52-4.93-9.92c-4.64-10.96-6.98-22.61-6.98-34.62c0-12,2.35-23.65,6.98-34.61c0.6-1.43,1.26-2.87,1.95-4.28
				l1.09-2.24c0.08,0.05,0.16,0.1,0.23,0.15c0.72,0.47,1.43,0.95,2.13,1.45c0.08,0.06,0.15,0.12,0.23,0.18
				c0.64,0.45,1.26,0.92,1.88,1.4c0.09,0.07,0.19,0.15,0.28,0.22l-1.24,2.65c-5.15,11.03-7.76,22.83-7.76,35.08
				c0,13.41,3.11,26.21,9.23,38.06c3.68,7.12,8.37,13.67,13.93,19.48c1.58,1.64,3.24,3.24,4.94,4.74
				c6.52,5.77,13.84,10.45,21.77,13.93c10.51,4.6,21.69,6.94,33.22,6.94c45.82,0,83.1-37.3,83.1-83.15
				c0-45.84-37.28-83.14-83.1-83.14c-11.68,0-22.98,2.39-33.59,7.09c-10.24,4.55-19.34,11.03-27.04,19.25l-1.78,1.9
				c-0.09-0.07-0.18-0.14-0.26-0.22c-0.62-0.52-1.23-1.04-1.86-1.54c-0.05-0.04-0.1-0.08-0.14-0.11c-0.67-0.54-1.35-1.06-2.04-1.58
				c-0.08-0.06-0.15-0.12-0.23-0.18l1.67-1.8c0.83-0.9,1.65-1.75,2.44-2.54c8.16-8.17,17.66-14.58,28.25-19.06
				c10.96-4.64,22.59-6.99,34.59-6.99c12,0,23.64,2.36,34.59,6.99c10.58,4.47,20.09,10.89,28.25,19.06
				c8.16,8.16,14.56,17.67,19.04,28.26c4.64,10.96,6.99,22.61,6.99,34.61C295.73,136.22,293.38,147.87,288.74,158.83z M126.25,81.98
				l-1.19,2.44c-0.7,1.44-1.37,2.92-1.99,4.38c-4.74,11.22-7.15,23.14-7.15,35.42c0,12.29,2.4,24.2,7.15,35.42
				c1.47,3.47,3.16,6.88,5.05,10.14c3.65,6.31,8.08,12.18,13.17,17.47l-1.83,1.85c-13.05,13.26-30.47,20.56-49.05,20.56
				c-37.96,0-68.84-30.9-68.84-68.88c0-37.98,30.88-68.89,68.84-68.89C103.11,71.91,115.47,75.39,126.25,81.98z M145.99,70.69
				l1.74-1.86c15.29-16.33,36.84-25.7,59.13-25.7c44.69,0,81.04,36.38,81.04,81.08c0,44.71-36.35,81.09-81.04,81.09
				c-11.25,0-22.15-2.28-32.4-6.76c-7.44-3.26-14.32-7.63-20.49-12.96l1.63-2.07c5.63-7.15,10.02-15.12,13.03-23.67
				c3.12-8.85,4.7-18.13,4.7-27.6c0-12.13-2.56-23.82-7.6-34.74C161,87.27,154.36,78.26,145.99,70.69z M134.82,161.33
				c-5.97-11.56-9-24.05-9-37.12c0-11.94,2.55-23.44,7.57-34.2l1.02-2.19c15.8,13.15,24.84,32.37,24.84,52.97
				c0,12.97-3.62,25.61-10.48,36.54l-1.26,2.02C142.48,173.94,138.21,167.89,134.82,161.33z M143.72,193.07
				c-14.74,12.95-33.68,20.07-53.3,20.07c-44.58,0-80.86-36.29-80.86-80.9c0-36.9,24.91-69.11,60.57-78.33
				c0.32-0.09,0.58-0.31,0.7-0.62c0.12-0.31,0.09-0.65-0.08-0.93L52.85,23.86c-0.33-0.52-0.24-1.21,0.2-1.64l9.69-9.33
				c0.3-0.29,0.7-0.45,1.13-0.45c0.44,0,0.84,0.16,1.14,0.47l0,0l-7.68,8.2l-1.43,1.52c0,0,0,0,0,0c-0.06,0.07-0.11,0.15-0.16,0.23
				c0,0,0,0,0,0.01c0,0,0,0.01-0.01,0.02c-0.01,0.03-0.02,0.06-0.03,0.09c-0.02,0.05-0.04,0.11-0.05,0.16c0,0.01,0,0.03,0,0.04
				c0,0.03,0,0.07,0,0.11c0,0.05,0,0.09,0,0.14c0,0.02,0.01,0.04,0.01,0.07c0,0.03,0.01,0.07,0.02,0.1
				c0.01,0.04,0.02,0.08,0.03,0.11c0,0.01,0,0.02,0,0.02c0.01,0.02,0.03,0.04,0.04,0.06c0.01,0.01,0.01,0.04,0.02,0.05L72.55,52.6
				c0.06,0.11,0.14,0.2,0.23,0.27l10.02,8.3h0l0,0.01c0,0,0.01,0,0.02,0.01c0.07,0.06,0.14,0.1,0.22,0.13
				c0.03,0.01,0.06,0.02,0.08,0.03c0.07,0.02,0.13,0.04,0.19,0.05c0.03,0,0.06,0,0.09,0.01c0.02,0,0.04,0,0.05,0
				c0.05,0,0.1-0.01,0.14-0.02c0.03,0,0.06,0,0.09-0.01c0.1-0.02,0.19-0.05,0.28-0.11l2.32-1.3l2.88-1.62
				c0.33-0.18,0.53-0.53,0.53-0.9V16h1.43v41.47c0,0.31,0.14,0.59,0.38,0.79c0.05,0.04,0.09,0.08,0.15,0.11l0.07,0.04l5.51,3.09
				c0.08,0.05,0.18,0.08,0.27,0.11c0.03,0,0.06,0,0.09,0.01c0.05,0.01,0.1,0.02,0.14,0.02c0.02,0,0.04,0,0.06,0
				c0.03,0,0.06-0.01,0.09-0.01c0.07-0.01,0.13-0.02,0.2-0.05c0.02-0.01,0.05-0.02,0.08-0.03c0.09-0.04,0.17-0.09,0.25-0.15
				l9.31-7.97c0.09-0.08,0.16-0.16,0.22-0.26l17.07-29.28c0.01-0.02,0.01-0.04,0.02-0.05c0.01-0.02,0.02-0.04,0.03-0.06
				c0-0.01,0-0.02,0.01-0.03c0.01-0.04,0.02-0.08,0.03-0.11c0.01-0.03,0.02-0.06,0.02-0.1c0-0.02,0.01-0.05,0.01-0.07
				c0-0.04,0-0.09,0-0.13c0-0.04,0-0.07,0-0.1c0-0.02,0-0.03,0-0.05c-0.01-0.05-0.03-0.11-0.05-0.16c-0.01-0.03-0.01-0.06-0.03-0.09
				c0,0,0-0.01-0.01-0.02c0,0,0,0,0-0.01c-0.04-0.08-0.09-0.15-0.15-0.21c0,0-0.01-0.01-0.01-0.02l-9.06-9.71l0-0.01
				c0.62-0.63,1.64-0.64,2.28-0.02l9.69,9.33c0.44,0.43,0.53,1.12,0.2,1.64l-17.89,28.51c-0.18,0.28-0.21,0.62-0.09,0.93
				c0.12,0.31,0.38,0.53,0.7,0.62c9.76,2.52,18.87,6.81,27.06,12.75c1.04,0.76,2.07,1.54,3.09,2.35c1.01,0.81,2.01,1.65,2.98,2.51
				c17.43,15.37,27.43,37.5,27.43,60.72c0,18.34-5.98,35.63-17.29,50l-1.55,1.97c-0.49-0.44-0.98-0.89-1.46-1.35
				c-0.08-0.07-0.16-0.14-0.23-0.22c-0.6-0.57-1.18-1.17-1.76-1.76l1.54-2.46c7.06-11.27,10.79-24.28,10.79-37.64
				c0-21.67-9.7-41.86-26.63-55.41c-0.52-0.42-1.05-0.83-1.58-1.24c-1.43-1.08-2.91-2.1-4.41-3.07c-0.19-0.12-0.37-0.24-0.55-0.36
				c-11.28-7.11-24.32-10.86-37.72-10.86c-18.94,0-36.74,7.38-50.13,20.78c-13.39,13.4-20.77,31.21-20.77,50.16
				c0,18.95,7.38,36.76,20.77,50.16c13.39,13.4,31.19,20.78,50.13,20.78c9.67,0,19.04-1.91,27.86-5.69
				c8.51-3.64,16.14-8.85,22.67-15.49l1.8-1.82c0.53,0.53,1.07,1.05,1.61,1.56c0.15,0.14,0.3,0.28,0.45,0.42
				c0.26,0.24,0.52,0.49,0.78,0.73L143.72,193.07z M69.04,14.24L69,22.31h-9.98l0.6-0.64l9.44-10.06L69.04,14.24z M80.26,14.88
				l-9.19,6.47l0.04-8.38l0.01-2.94h16.04L80.26,14.88z M109.7,10.02l0.05,11.33l-8.17-5.75l-7.93-5.58H109.7z M111.51,42.92
				l-5.26,9.03l-2.87,2.46L111.51,42.92z M86.27,57.63L71.61,24.37h16.03v32.49L86.27,57.63z M89.38,10.98v2.96
				c-0.06,0-0.11,0.02-0.17,0.02c-0.05,0-0.11,0.01-0.16,0.02c-0.06,0.01-0.12,0.04-0.18,0.06c-0.05,0.02-0.11,0.03-0.16,0.05
				c-0.06,0.02-0.11,0.06-0.16,0.09c-0.04,0.03-0.09,0.05-0.13,0.08c-0.05,0.04-0.1,0.08-0.14,0.12c-0.04,0.03-0.08,0.06-0.12,0.1
				c-0.04,0.05-0.08,0.1-0.12,0.15c-0.03,0.04-0.07,0.08-0.1,0.11c-0.04,0.06-0.07,0.12-0.1,0.18c-0.02,0.04-0.05,0.08-0.07,0.12
				c-0.03,0.07-0.05,0.14-0.07,0.22c-0.01,0.04-0.03,0.08-0.04,0.11c-0.02,0.11-0.03,0.24-0.03,0.36v6.58H73.28l7.66-5.4
				L89.38,10.98z M107.54,22.31H93.18v-6.58c0-0.12-0.01-0.24-0.03-0.36c0-0.04-0.02-0.08-0.03-0.11c-0.02-0.08-0.04-0.15-0.07-0.22
				c-0.02-0.04-0.04-0.08-0.07-0.12c-0.03-0.06-0.06-0.12-0.1-0.17c-0.03-0.04-0.06-0.08-0.1-0.12c-0.04-0.05-0.08-0.1-0.12-0.14
				c-0.03-0.04-0.08-0.07-0.12-0.1c-0.04-0.04-0.09-0.08-0.14-0.12c-0.04-0.03-0.09-0.05-0.14-0.08c-0.05-0.03-0.11-0.06-0.16-0.09
				c-0.05-0.02-0.11-0.04-0.15-0.05c-0.06-0.02-0.12-0.04-0.18-0.06c-0.06-0.01-0.11-0.01-0.17-0.02c-0.06,0-0.11-0.02-0.17-0.02
				v-2.96l8.67,6.1L107.54,22.31z M111.47,24.37h10.66l-24.7,34.88l-0.8-0.45L111.47,24.37z M94.83,57.78l-1.65-0.92V24.37h16.04
				l-5,11.61L94.83,57.78z M113.77,13.76l6.85,7.33l1.13,1.21h-9.93l-0.05-10.69L113.77,13.76z M77.87,54.42l-3.64-3.02l-6.1-10.45
				L77.87,54.42z M58.66,24.37h10.69l15.11,34.27l-0.7,0.4L58.66,24.37z M290.64,88.8c-4.58-10.84-11.14-20.57-19.49-28.92
				c-8.35-8.36-18.08-14.92-28.9-19.5c-11.22-4.75-23.12-7.15-35.4-7.15c-12.28,0-24.18,2.4-35.4,7.15
				c-10.83,4.58-20.55,11.14-28.9,19.5c-0.81,0.81-1.64,1.68-2.49,2.6l-1.84,1.99c-7.83-5.54-16.45-9.64-25.66-12.18l17.15-27.33
				c0.84-1.34,0.63-3.12-0.52-4.22l-9.69-9.33c-0.71-0.68-1.64-1.05-2.62-1.03c-0.94,0.01-1.82,0.39-2.49,1.05l-2.93-3.14
				c0,0,0,0-0.01,0c-0.07-0.07-0.14-0.12-0.22-0.17c-0.01-0.01-0.03-0.01-0.04-0.02c-0.08-0.04-0.16-0.08-0.24-0.1
				c0,0-0.01,0-0.01,0c-0.07-0.01-0.15-0.02-0.22-0.02H70.09c-0.08,0-0.15,0.01-0.22,0.02c0,0-0.01,0-0.01,0
				c-0.09,0.02-0.17,0.05-0.24,0.1c-0.02,0-0.03,0.01-0.04,0.02c-0.08,0.05-0.16,0.11-0.22,0.17c0,0,0,0-0.01,0l-2.93,3.12
				c-0.69-0.66-1.59-1.03-2.56-1.03c-0.96,0-1.87,0.36-2.56,1.03l-9.69,9.33c-1.14,1.1-1.36,2.87-0.52,4.22l17.15,27.33
				c-8.32,2.3-16.19,5.88-23.42,10.65c-7.51,4.95-14.12,11.04-19.68,18.12c-5.61,7.15-9.97,15.1-12.97,23.64
				c-3.11,8.83-4.68,18.1-4.68,27.55c0,11.2,2.19,22.06,6.52,32.29c4.17,9.88,10.15,18.75,17.77,26.37
				c7.62,7.62,16.48,13.6,26.36,17.78c10.22,4.33,21.08,6.52,32.27,6.52c20.13,0,39.54-7.31,54.66-20.59l2.06-1.8
				c6.63,5.79,14.05,10.59,22.06,14.24c0.9,0.41,1.6,0.71,2.26,0.99c11.21,4.75,23.12,7.15,35.4,7.15c12.28,0,24.19-2.4,35.4-7.15
				c10.83-4.58,20.56-11.14,28.9-19.5c8.35-8.35,14.91-18.08,19.49-28.92c4.74-11.22,7.15-23.13,7.15-35.42
				C297.79,111.94,295.38,100.02,290.64,88.8"/>
		</g>
	</g>
</g>
<g id="Capa_2">
	<path d="M23.89,190.94c-1.04-0.74-2.52-0.56-3.31,0.43c-0.79,0.99-0.59,2.38,0.45,3.13c0.29,0.2,7.15,5.12,17.53,8.47
		c10.38,3.36,18.97,3.45,19.33,3.45c0.01,0,0.01,0,0.02,0c1.29,0,2.34-0.99,2.35-2.23c0.01-1.24-1.04-2.24-2.34-2.25
		c-0.08,0-8.24-0.1-17.85-3.21C30.47,195.63,23.95,190.99,23.89,190.94z"/>
	<path d="M130.31,63.14c0-0.24-0.04-0.48-0.12-0.7c-0.01-0.02-0.02-0.05-0.04-0.07c-0.02-0.07-0.07-0.12-0.11-0.19
		c-0.08-0.17-0.19-0.33-0.32-0.48c-0.06-0.07-0.13-0.12-0.2-0.18c-0.14-0.14-0.31-0.24-0.5-0.33c-0.05-0.02-0.08-0.07-0.13-0.09
		c-0.04-0.01-0.06,0-0.08-0.01c-0.25-0.1-0.53-0.16-0.8-0.16c-0.01,0-0.02-0.01-0.04-0.01h-0.01c-46.94,0-73.45,6.99-74.56,7.29
		c-0.01,0.01-0.02,0.01-0.04,0.02c-0.08,0.02-0.17,0.07-0.25,0.11c-0.17,0.07-0.35,0.15-0.49,0.26c-0.08,0.06-0.16,0.12-0.23,0.2
		c-0.12,0.11-0.24,0.25-0.33,0.39c-0.05,0.08-0.1,0.17-0.14,0.26c-0.08,0.17-0.13,0.36-0.17,0.56c-0.01,0.06-0.05,0.1-0.05,0.17
		c-0.04,0.33-2.48,33.22,28.23,37.72c1.21,0.18,2.4,0.27,3.58,0.27c26.4,0,45.77-42.26,46.6-44.13c0.02-0.03,0.01-0.07,0.02-0.1
		c0.08-0.22,0.13-0.43,0.14-0.67C130.3,63.23,130.31,63.19,130.31,63.14z M119.14,65.47c-9.91,4.59-29.34,10.7-55.36,5.11
		C74.15,68.66,93.11,65.94,119.14,65.47z M83.51,103.69c-0.96,0-1.91-0.07-2.87-0.2c-21.74-3.19-24.18-22.73-24.31-30.13
		c10.39,2.88,19.87,4.01,28.29,4.01c17.37,0,30.31-4.7,37.7-8.33C115.83,80.76,100.94,103.69,83.51,103.69z"/>
	<g>
		<defs>
			<rect id="SVGID_3_" x="1" y="-1" width="297.78" height="223.81"/>
		</defs>
		<clipPath id="SVGID_4_">
			<use xlink:href="#SVGID_3_"  style="overflow:visible;"/>
		</clipPath>
		<g class="st3">
			<path d="M298.33,195.75c-0.57-1.91-2.22-3.29-4.29-3.62L261.87,187l-23.57-69.4c38.8-15.19,14.01-99.05,12.91-102.68
				c-0.04-0.1-0.11-0.18-0.16-0.28c-0.04-0.14-0.04-0.28-0.08-0.42c-1.73-5.11-8.67-7.86-20.04-7.94
				c-10.41-0.06-23.3,2.11-36.46,6.14s-25,9.44-33.37,15.24c-3.68,2.57-6.48,5.06-8.44,7.48c-3.79-9.98-23.65-21.07-43.98-27.65
				C84.28-0.39,56.18-2.75,52.17,8.44c-0.06,0.17-0.1,0.34-0.14,0.51c-0.04,0.07-0.08,0.11-0.11,0.18
				C50.76,12.74,24.52,96.2,63.06,112L38.3,181.01l-32.25,4.63c-2.07,0.3-3.74,1.66-4.35,3.55c-0.61,1.91-0.02,3.93,1.53,5.28
				c4.25,3.72,13.39,9.46,32.74,15.73c16.39,5.29,26.74,6.64,33.02,6.64c1.15,0,2.15-0.05,3.03-0.12c2.1-0.17,3.87-1.43,4.6-3.3
				c0.74-1.85,0.3-3.89-1.15-5.33l-22.58-22.36l24.75-69.01c35.19,8.49,64.52-51.16,72.72-69.74c3.73,9.48,31.05,75.85,66.84,75.85
				c2.1,0,4.25-0.24,6.42-0.73l23.57,69.39l-22.95,22c-1.48,1.42-1.96,3.45-1.25,5.31c0.7,1.88,2.45,3.18,4.55,3.38
				c1.06,0.1,2.29,0.17,3.74,0.17c6.33,0,16.54-1.28,32.41-6.14c19.46-5.96,28.69-11.56,33.02-15.2
				C298.29,199.67,298.91,197.67,298.33,195.75z M163.88,31.29c7.96-5.53,19.34-10.72,32.04-14.6c12.5-3.83,24.74-5.93,34.53-5.93
				c0.14,0,0.3,0,0.44,0c8.75,0.07,14.58,1.87,15.59,4.84c1,2.97-2.62,7.68-9.67,12.57c-7.98,5.53-19.36,10.71-32.04,14.6
				c-12.69,3.88-25.06,6.02-34.99,5.93c-8.74-0.07-14.57-1.87-15.58-4.84C153.21,40.89,156.83,36.19,163.88,31.29z M107.17,11.75
				c26.26,8.48,43.43,21.68,41.23,27.8c-1.05,2.95-6.88,4.61-15.67,4.6c-9.86-0.09-22.25-2.38-34.87-6.47
				C71.59,29.19,54.44,16,56.63,9.88C58.82,3.76,80.9,3.26,107.17,11.75z M76.91,111.84c-1.23-0.4-2.57,0.23-2.99,1.4l-25.95,72.34
				c-0.29,0.79-0.08,1.67,0.53,2.27l23.56,23.34c0.25,0.24,0.21,0.49,0.16,0.65c-0.06,0.15-0.21,0.4-0.6,0.43
				c-5.31,0.43-15.53-0.3-34.11-6.31c-18.59-6.01-27.17-11.34-31.08-14.77c-0.29-0.25-0.25-0.53-0.2-0.68
				c0.06-0.17,0.19-0.39,0.54-0.43l33.67-4.84c0.87-0.12,1.6-0.7,1.87-1.49l25.95-72.34c0.42-1.17-0.24-2.44-1.47-2.85
				C35.9,98.58,48.74,38.86,54.33,17.8c6.47,8.98,24.06,18.31,42.01,24.12c13.09,4.22,26,6.61,36.35,6.7c0.21,0,0.42,0,0.63,0
				c4.78,0,8.7-0.52,11.82-1.5C136.04,67.03,107.8,121.83,76.91,111.84z M293.59,197.67c-3.99,3.36-12.66,8.57-31.33,14.29
				c-18.69,5.71-28.92,6.29-34.21,5.78c-0.39-0.05-0.55-0.3-0.6-0.44c-0.07-0.16-0.1-0.42,0.16-0.65l23.97-22.97
				c0.62-0.6,0.84-1.46,0.56-2.27l-24.71-72.72c-0.19-0.57-0.61-1.03-1.17-1.31c-0.55-0.27-1.21-0.32-1.79-0.14
				c-31.05,9.51-58.35-45.71-67.12-65.76c3.24,1.07,7.37,1.66,12.42,1.69c0.17,0,0.32,0,0.48,0c10.28,0,23.03-2.18,35.99-6.14
				c13.16-4.03,25-9.44,33.36-15.24c4.1-2.84,7.08-5.61,9.05-8.27c5.22,21.1,17.09,81.08-13.99,90.6c-1.24,0.37-1.92,1.64-1.53,2.82
				l24.71,72.74c0.27,0.79,0.99,1.37,1.86,1.51l33.58,5.36c0.35,0.06,0.48,0.27,0.54,0.44
				C293.84,197.13,293.87,197.42,293.59,197.67z"/>
		</g>
	</g>
	<path d="M276.12,197.15c-0.06,0.05-6.62,4.58-16.32,7.55c-9.42,2.88-17.41,2.93-17.89,2.93c-0.05,0-0.02,0-0.04,0
		c-1.29,0-2.35,0.99-2.35,2.23c-0.01,1.23,1.03,2.24,2.33,2.26c0.01,0,0.05,0,0.11,0c1.05,0,9.34-0.1,19.28-3.16
		c10.42-3.19,17.39-7.99,17.67-8.2c1.05-0.74,1.28-2.13,0.5-3.13C278.65,196.63,277.17,196.42,276.12,197.15z"/>
	<path d="M250.37,75.97c0-0.06-0.04-0.11-0.05-0.17c-0.02-0.19-0.07-0.39-0.16-0.57c-0.04-0.08-0.08-0.15-0.13-0.22
		c-0.11-0.18-0.24-0.34-0.39-0.48c-0.04-0.05-0.07-0.09-0.12-0.12c-0.21-0.16-0.44-0.3-0.7-0.39c-0.01,0-0.02-0.01-0.04-0.01
		c-0.02-0.01-0.05-0.03-0.07-0.03c-1.1-0.32-27.49-7.79-74.43-8.45h-0.01c-0.24,0.01-0.49,0.06-0.73,0.14
		c-0.06,0.02-0.12,0.01-0.18,0.03c-0.11,0.05-0.19,0.12-0.29,0.18c-0.08,0.05-0.17,0.1-0.25,0.16c-0.12,0.09-0.24,0.18-0.35,0.3
		c-0.11,0.11-0.18,0.24-0.26,0.37c-0.05,0.09-0.11,0.16-0.14,0.25c-0.01,0.02-0.02,0.03-0.04,0.06c-0.08,0.23-0.13,0.47-0.13,0.7
		c0,0.05,0.01,0.09,0.01,0.12c0.01,0.23,0.06,0.45,0.13,0.67c0.01,0.03,0.01,0.07,0.02,0.1c0.82,1.9,19.63,44.85,46.22,44.85
		c1.06,0,2.14-0.08,3.22-0.22C252.29,109.24,250.4,76.31,250.37,75.97z M238.29,76.19c-26.02,5.15-45.35-1.24-55.21-5.96
		C209.07,71.11,227.96,74.11,238.29,76.19z M220.87,108.83c-18.7,2.45-34.46-22.62-41.08-35.1c7.53,3.85,20.91,8.92,39.03,8.92
		c8.05,0,17.04-1.02,26.87-3.58C245.43,86.48,242.66,105.98,220.87,108.83z"/>
</g>
</svg>
