<?xml version="1.0" encoding="utf-8"?>
<!-- Generator: Adobe Illustrator 23.0.3, SVG Export Plug-In . SVG Version: 6.00 Build 0)  -->
<svg version="1.1" id="Capa_1" xmlns="http://www.w3.org/2000/svg" xmlns:xlink="http://www.w3.org/1999/xlink" x="0px" y="0px"
	 viewBox="0 0 300 223" style="enable-background:new 0 0 300 223;" xml:space="preserve">
<style type="text/css">
	.st0{clip-path:url(#SVGID_2_);}
</style>
<g>
	<defs>
		<rect id="SVGID_1_" x="7.29" y="7.99" width="290.71" height="207.26"/>
	</defs>
	<clipPath id="SVGID_2_">
		<use xlink:href="#SVGID_1_"  style="overflow:visible;"/>
	</clipPath>
	<g class="st0">
		<path d="M288.74,158.83c-4.48,10.59-10.89,20.1-19.04,28.26c-8.17,8.17-17.67,14.58-28.25,19.06
			c-10.95,4.64-22.59,6.99-34.59,6.99c-12,0-23.64-2.35-34.6-6.99c-0.65-0.27-1.33-0.57-2.21-0.97c-8.1-3.7-15.59-8.57-22.24-14.5
			c-1.29-1.14-2.56-2.35-3.8-3.59c-0.19-0.18-0.37-0.36-0.55-0.55c0,0,0,0,0,0c-5.27-5.36-9.83-11.35-13.56-17.79
			c-1.84-3.19-3.5-6.52-4.93-9.92c-4.64-10.96-6.98-22.61-6.98-34.62c0-12,2.35-23.65,6.98-34.61c0.6-1.43,1.26-2.87,1.95-4.28
			l1.09-2.24c0.08,0.05,0.16,0.1,0.23,0.15c0.72,0.47,1.43,0.95,2.13,1.45c0.08,0.06,0.15,0.12,0.23,0.18
			c0.64,0.45,1.26,0.92,1.88,1.4c0.09,0.07,0.19,0.15,0.28,0.22l-1.24,2.65c-5.15,11.03-7.76,22.83-7.76,35.08
			c0,13.41,3.11,26.21,9.23,38.06c3.68,7.12,8.37,13.67,13.93,19.48c1.58,1.64,3.24,3.24,4.94,4.74
			c6.52,5.77,13.84,10.45,21.77,13.93c10.51,4.6,21.69,6.94,33.22,6.94c45.82,0,83.1-37.3,83.1-83.15
			c0-45.84-37.28-83.14-83.1-83.14c-11.68,0-22.98,2.39-33.59,7.09c-10.24,4.55-19.34,11.03-27.04,19.25l-1.78,1.9
			c-0.09-0.07-0.18-0.14-0.26-0.22c-0.62-0.52-1.23-1.04-1.86-1.54c-0.05-0.04-0.1-0.08-0.14-0.11c-0.67-0.54-1.35-1.06-2.04-1.58
			c-0.08-0.06-0.15-0.12-0.23-0.18l1.67-1.8c0.83-0.9,1.65-1.75,2.44-2.54c8.16-8.17,17.66-14.58,28.25-19.06
			c10.96-4.64,22.59-6.99,34.59-6.99c12,0,23.64,2.36,34.59,6.99c10.58,4.47,20.09,10.89,28.25,19.06
			c8.16,8.16,14.56,17.67,19.04,28.26c4.64,10.96,6.99,22.61,6.99,34.61C295.73,136.22,293.38,147.87,288.74,158.83z M126.25,81.98
			l-1.19,2.44c-0.7,1.44-1.37,2.92-1.99,4.38c-4.74,11.22-7.15,23.14-7.15,35.42c0,12.29,2.4,24.2,7.15,35.42
			c1.47,3.47,3.16,6.88,5.05,10.14c3.65,6.31,8.08,12.18,13.17,17.47l-1.83,1.85c-13.05,13.26-30.47,20.56-49.05,20.56
			c-37.96,0-68.84-30.9-68.84-68.88c0-37.98,30.88-68.89,68.84-68.89C103.11,71.91,115.47,75.39,126.25,81.98z M145.99,70.69
			l1.74-1.86c15.29-16.33,36.84-25.7,59.13-25.7c44.69,0,81.04,36.38,81.04,81.08c0,44.71-36.35,81.09-81.04,81.09
			c-11.25,0-22.15-2.28-32.4-6.76c-7.44-3.26-14.32-7.63-20.49-12.96l1.63-2.07c5.63-7.15,10.02-15.12,13.03-23.67
			c3.12-8.85,4.7-18.13,4.7-27.6c0-12.13-2.56-23.82-7.6-34.74C161,87.27,154.36,78.26,145.99,70.69z M134.82,161.33
			c-5.97-11.56-9-24.05-9-37.12c0-11.94,2.55-23.44,7.57-34.2l1.02-2.19c15.8,13.15,24.84,32.37,24.84,52.97
			c0,12.97-3.62,25.61-10.48,36.54l-1.26,2.02C142.48,173.94,138.21,167.89,134.82,161.33z M143.72,193.07
			c-14.74,12.95-33.68,20.07-53.3,20.07c-44.58,0-80.86-36.29-80.86-80.9c0-36.9,24.91-69.11,60.57-78.33
			c0.32-0.09,0.58-0.31,0.7-0.62c0.12-0.31,0.09-0.65-0.08-0.93L52.85,23.86c-0.33-0.52-0.24-1.21,0.2-1.64l9.69-9.33
			c0.3-0.29,0.7-0.45,1.13-0.45c0.44,0,0.84,0.16,1.14,0.47l0,0l-7.68,8.2l-1.43,1.52c0,0,0,0,0,0c-0.06,0.07-0.11,0.15-0.16,0.23
			c0,0,0,0,0,0.01c0,0,0,0.01-0.01,0.02c-0.01,0.03-0.02,0.06-0.03,0.09c-0.02,0.05-0.04,0.11-0.05,0.16c0,0.01,0,0.03,0,0.04
			c0,0.03,0,0.07,0,0.11c0,0.05,0,0.09,0,0.14c0,0.02,0.01,0.04,0.01,0.07c0,0.03,0.01,0.07,0.02,0.1c0.01,0.04,0.02,0.08,0.03,0.11
			c0,0.01,0,0.02,0,0.02c0.01,0.02,0.03,0.04,0.04,0.06c0.01,0.01,0.01,0.04,0.02,0.05L72.55,52.6c0.06,0.11,0.14,0.2,0.23,0.27
			l10.02,8.3h0l0,0.01c0,0,0.01,0,0.02,0.01c0.07,0.06,0.14,0.1,0.22,0.13c0.03,0.01,0.06,0.02,0.08,0.03
			c0.07,0.02,0.13,0.04,0.19,0.05c0.03,0,0.06,0,0.09,0.01c0.02,0,0.04,0,0.05,0c0.05,0,0.1-0.01,0.14-0.02c0.03,0,0.06,0,0.09-0.01
			c0.1-0.02,0.19-0.05,0.28-0.11l2.32-1.3l2.88-1.62c0.33-0.18,0.53-0.53,0.53-0.9V16h1.43v41.47c0,0.31,0.14,0.59,0.38,0.79
			c0.05,0.04,0.09,0.08,0.15,0.11l0.07,0.04l5.51,3.09c0.08,0.05,0.18,0.08,0.27,0.11c0.03,0,0.06,0,0.09,0.01
			c0.05,0.01,0.1,0.02,0.14,0.02c0.02,0,0.04,0,0.06,0c0.03,0,0.06-0.01,0.09-0.01c0.07-0.01,0.13-0.02,0.2-0.05
			c0.02-0.01,0.05-0.02,0.08-0.03c0.09-0.04,0.17-0.09,0.25-0.15l9.31-7.97c0.09-0.08,0.16-0.16,0.22-0.26l17.07-29.28
			c0.01-0.02,0.01-0.04,0.02-0.05c0.01-0.02,0.02-0.04,0.03-0.06c0-0.01,0-0.02,0.01-0.03c0.01-0.04,0.02-0.08,0.03-0.11
			c0.01-0.03,0.02-0.06,0.02-0.1c0-0.02,0.01-0.05,0.01-0.07c0-0.04,0-0.09,0-0.13c0-0.04,0-0.07,0-0.1c0-0.02,0-0.03,0-0.05
			c-0.01-0.05-0.03-0.11-0.05-0.16c-0.01-0.03-0.01-0.06-0.03-0.09c0,0,0-0.01-0.01-0.02c0,0,0,0,0-0.01
			c-0.04-0.08-0.09-0.15-0.15-0.21c0,0-0.01-0.01-0.01-0.02l-9.06-9.71l0-0.01c0.62-0.63,1.64-0.64,2.28-0.02l9.69,9.33
			c0.44,0.43,0.53,1.12,0.2,1.64l-17.89,28.51c-0.18,0.28-0.21,0.62-0.09,0.93c0.12,0.31,0.38,0.53,0.7,0.62
			c9.76,2.52,18.87,6.81,27.06,12.75c1.04,0.76,2.07,1.54,3.09,2.35c1.01,0.81,2.01,1.65,2.98,2.51
			c17.43,15.37,27.43,37.5,27.43,60.72c0,18.34-5.98,35.63-17.29,50l-1.55,1.97c-0.49-0.44-0.98-0.89-1.46-1.35
			c-0.08-0.07-0.16-0.14-0.23-0.22c-0.6-0.57-1.18-1.17-1.76-1.76l1.54-2.46c7.06-11.27,10.79-24.28,10.79-37.64
			c0-21.67-9.7-41.86-26.63-55.41c-0.52-0.42-1.05-0.83-1.58-1.24c-1.43-1.08-2.91-2.1-4.41-3.07c-0.19-0.12-0.37-0.24-0.55-0.36
			c-11.28-7.11-24.32-10.86-37.72-10.86c-18.94,0-36.74,7.38-50.13,20.78c-13.39,13.4-20.77,31.21-20.77,50.16
			c0,18.95,7.38,36.76,20.77,50.16c13.39,13.4,31.19,20.78,50.13,20.78c9.67,0,19.04-1.91,27.86-5.69
			c8.51-3.64,16.14-8.85,22.67-15.49l1.8-1.82c0.53,0.53,1.07,1.05,1.61,1.56c0.15,0.14,0.3,0.28,0.45,0.42
			c0.26,0.24,0.52,0.49,0.78,0.73L143.72,193.07z M69.04,14.24L69,22.31h-9.98l0.6-0.64l9.44-10.06L69.04,14.24z M80.26,14.88
			l-9.19,6.47l0.04-8.38l0.01-2.94h16.04L80.26,14.88z M109.7,10.02l0.05,11.33l-8.17-5.75l-7.93-5.58H109.7z M111.51,42.92
			l-5.26,9.03l-2.87,2.46L111.51,42.92z M86.27,57.63L71.61,24.37h16.03v32.49L86.27,57.63z M89.38,10.98v2.96
			c-0.06,0-0.11,0.02-0.17,0.02c-0.05,0-0.11,0.01-0.16,0.02c-0.06,0.01-0.12,0.04-0.18,0.06c-0.05,0.02-0.11,0.03-0.16,0.05
			c-0.06,0.02-0.11,0.06-0.16,0.09c-0.04,0.03-0.09,0.05-0.13,0.08c-0.05,0.04-0.1,0.08-0.14,0.12c-0.04,0.03-0.08,0.06-0.12,0.1
			c-0.04,0.05-0.08,0.1-0.12,0.15c-0.03,0.04-0.07,0.08-0.1,0.11c-0.04,0.06-0.07,0.12-0.1,0.18c-0.02,0.04-0.05,0.08-0.07,0.12
			c-0.03,0.07-0.05,0.14-0.07,0.22c-0.01,0.04-0.03,0.08-0.04,0.11c-0.02,0.11-0.03,0.24-0.03,0.36v6.58H73.28l7.66-5.4L89.38,10.98
			z M107.54,22.31H93.18v-6.58c0-0.12-0.01-0.24-0.03-0.36c0-0.04-0.02-0.08-0.03-0.11c-0.02-0.08-0.04-0.15-0.07-0.22
			c-0.02-0.04-0.04-0.08-0.07-0.12c-0.03-0.06-0.06-0.12-0.1-0.17c-0.03-0.04-0.06-0.08-0.1-0.12c-0.04-0.05-0.08-0.1-0.12-0.14
			c-0.03-0.04-0.08-0.07-0.12-0.1c-0.04-0.04-0.09-0.08-0.14-0.12c-0.04-0.03-0.09-0.05-0.14-0.08c-0.05-0.03-0.11-0.06-0.16-0.09
			c-0.05-0.02-0.11-0.04-0.15-0.05c-0.06-0.02-0.12-0.04-0.18-0.06c-0.06-0.01-0.11-0.01-0.17-0.02c-0.06,0-0.11-0.02-0.17-0.02
			v-2.96l8.67,6.1L107.54,22.31z M111.47,24.37h10.66l-24.7,34.88l-0.8-0.45L111.47,24.37z M94.83,57.78l-1.65-0.92V24.37h16.04
			l-5,11.61L94.83,57.78z M113.77,13.76l6.85,7.33l1.13,1.21h-9.93l-0.05-10.69L113.77,13.76z M77.87,54.42l-3.64-3.02l-6.1-10.45
			L77.87,54.42z M58.66,24.37h10.69l15.11,34.27l-0.7,0.4L58.66,24.37z M290.64,88.8c-4.58-10.84-11.14-20.57-19.49-28.92
			c-8.35-8.36-18.08-14.92-28.9-19.5c-11.22-4.75-23.12-7.15-35.4-7.15c-12.28,0-24.18,2.4-35.4,7.15
			c-10.83,4.58-20.55,11.14-28.9,19.5c-0.81,0.81-1.64,1.68-2.49,2.6l-1.84,1.99c-7.83-5.54-16.45-9.64-25.66-12.18l17.15-27.33
			c0.84-1.34,0.63-3.12-0.52-4.22l-9.69-9.33c-0.71-0.68-1.64-1.05-2.62-1.03c-0.94,0.01-1.82,0.39-2.49,1.05l-2.93-3.14
			c0,0,0,0-0.01,0c-0.07-0.07-0.14-0.12-0.22-0.17c-0.01-0.01-0.03-0.01-0.04-0.02c-0.08-0.04-0.16-0.08-0.24-0.1c0,0-0.01,0-0.01,0
			c-0.07-0.01-0.15-0.02-0.22-0.02H70.09c-0.08,0-0.15,0.01-0.22,0.02c0,0-0.01,0-0.01,0c-0.09,0.02-0.17,0.05-0.24,0.1
			c-0.02,0-0.03,0.01-0.04,0.02c-0.08,0.05-0.16,0.11-0.22,0.17c0,0,0,0-0.01,0l-2.93,3.12c-0.69-0.66-1.59-1.03-2.56-1.03
			c-0.96,0-1.87,0.36-2.56,1.03l-9.69,9.33c-1.14,1.1-1.36,2.87-0.52,4.22l17.15,27.33c-8.32,2.3-16.19,5.88-23.42,10.65
			c-7.51,4.95-14.12,11.04-19.68,18.12c-5.61,7.15-9.97,15.1-12.97,23.64c-3.11,8.83-4.68,18.1-4.68,27.55
			c0,11.2,2.19,22.06,6.52,32.29c4.17,9.88,10.15,18.75,17.77,26.37c7.62,7.62,16.48,13.6,26.36,17.78
			c10.22,4.33,21.08,6.52,32.27,6.52c20.13,0,39.54-7.31,54.66-20.59l2.06-1.8c6.63,5.79,14.05,10.59,22.06,14.24
			c0.9,0.41,1.6,0.71,2.26,0.99c11.21,4.75,23.12,7.15,35.4,7.15c12.28,0,24.19-2.4,35.4-7.15c10.83-4.58,20.56-11.14,28.9-19.5
			c8.35-8.35,14.91-18.08,19.49-28.92c4.74-11.22,7.15-23.13,7.15-35.42C297.79,111.94,295.38,100.02,290.64,88.8"/>
	</g>
</g>
</svg>
