<svg xmlns="http://www.w3.org/2000/svg" xmlns:xlink="http://www.w3.org/1999/xlink" width="70" zoomAndPan="magnify" viewBox="0 0 52.5 37.5" height="50" preserveAspectRatio="xMidYMid meet" version="1.0"><defs><clipPath id="43b0fcf177"><path d="M 0.0976562 0 L 51.90625 0 L 51.90625 37.007812 L 0.0976562 37.007812 Z M 0.0976562 0 " clip-rule="nonzero"/></clipPath><clipPath id="99ede7b166"><path d="M 2.515625 8.226562 L 49.140625 8.226562 L 49.140625 28.949219 L 2.515625 28.949219 Z M 2.515625 8.226562 " clip-rule="nonzero"/></clipPath></defs><g clip-path="url(#43b0fcf177)"><path fill="#ffffff" d="M 0.0976562 0 L 51.90625 0 L 51.90625 37.007812 L 0.0976562 37.007812 Z M 0.0976562 0 " fill-opacity="1" fill-rule="nonzero"/><path fill="#ffffff" d="M 0.0976562 0 L 51.90625 0 L 51.90625 37.007812 L 0.0976562 37.007812 Z M 0.0976562 0 " fill-opacity="1" fill-rule="nonzero"/></g><g clip-path="url(#99ede7b166)"><path fill="#a89d12" d="M 49.390625 22.207031 C 49.359375 22.203125 49.304688 22.210938 49.289062 22.230469 C 49.0625 22.507812 48.84375 22.785156 48.617188 23.058594 C 48.269531 23.484375 47.898438 23.894531 47.492188 24.269531 C 46.445312 25.242188 45.257812 26.011719 43.964844 26.613281 C 43.25 26.949219 42.507812 27.214844 41.75 27.433594 C 40.632812 27.753906 39.503906 28.015625 38.347656 28.175781 C 37.878906 28.238281 37.40625 28.261719 36.9375 28.308594 C 35.714844 28.421875 34.492188 28.371094 33.28125 28.21875 C 31.890625 28.042969 30.535156 27.699219 29.214844 27.222656 C 27.410156 26.574219 25.703125 25.722656 24.078125 24.707031 C 23.863281 24.578125 23.621094 24.421875 23.390625 24.25 L 24.132812 23.632812 C 25.960938 22.148438 27.609375 20.488281 29.011719 18.589844 C 29.597656 17.796875 30.128906 16.96875 30.585938 16.097656 C 30.90625 15.484375 31.191406 14.855469 31.378906 14.1875 C 31.628906 13.308594 31.757812 12.421875 31.574219 11.503906 C 31.328125 10.242188 30.652344 9.304688 29.511719 8.710938 C 28.867188 8.375 28.179688 8.25 27.457031 8.265625 C 26.601562 8.285156 25.832031 8.542969 25.148438 9.054688 C 24.460938 9.570312 23.902344 10.199219 23.480469 10.945312 C 23.433594 11.03125 23.378906 11.113281 23.320312 11.191406 C 23.308594 11.207031 23.234375 11.207031 23.21875 11.191406 C 22.945312 10.855469 22.667969 10.523438 22.324219 10.253906 C 21.828125 9.863281 21.296875 9.523438 20.722656 9.25 C 20.226562 9.007812 19.695312 8.851562 19.144531 8.789062 C 18.253906 8.6875 17.417969 8.855469 16.675781 9.390625 C 16.257812 9.695312 15.90625 10.0625 15.636719 10.507812 C 15.097656 11.378906 14.8125 12.335938 14.796875 13.363281 C 14.78125 14.382812 15.003906 15.355469 15.414062 16.285156 C 15.890625 17.351562 16.476562 18.355469 17.203125 19.269531 C 18.199219 20.523438 19.328125 21.648438 20.546875 22.683594 C 21.121094 23.171875 21.710938 23.632812 22.316406 24.070312 C 22.394531 24.128906 22.472656 24.191406 22.546875 24.253906 C 22.605469 24.300781 22.679688 24.355469 22.679688 24.355469 C 21.648438 25.023438 20.652344 25.675781 19.535156 26.191406 C 19.089844 26.394531 18.636719 26.59375 18.171875 26.757812 C 16.6875 27.289062 15.167969 27.6875 13.597656 27.882812 C 12.261719 28.050781 10.925781 28.074219 9.589844 27.886719 C 9.277344 27.839844 8.96875 27.78125 8.660156 27.726562 C 7.941406 27.601562 7.21875 27.496094 6.507812 27.34375 C 5.8125 27.199219 5.109375 27.109375 4.335938 26.984375 C 3.871094 26.9375 3.339844 26.898438 2.808594 26.910156 C 2.738281 26.953125 2.652344 26.984375 2.558594 27 C 2.554688 27.0625 2.539062 27.125 2.515625 27.191406 C 2.550781 27.226562 2.582031 27.265625 2.613281 27.304688 C 2.613281 27.304688 2.617188 27.304688 2.617188 27.304688 C 2.542969 27.210938 2.582031 27.25 2.628906 27.304688 C 2.683594 27.308594 2.734375 27.3125 2.796875 27.3125 C 2.867188 27.3125 2.9375 27.328125 3.007812 27.347656 C 3.101562 27.34375 3.199219 27.34375 3.296875 27.34375 C 4.027344 27.347656 4.753906 27.433594 5.472656 27.550781 C 5.726562 27.589844 5.976562 27.652344 6.226562 27.695312 C 6.886719 27.8125 7.546875 27.914062 8.203125 28.042969 C 8.921875 28.1875 9.644531 28.269531 10.367188 28.335938 C 11.53125 28.445312 12.691406 28.402344 13.84375 28.230469 C 17.070312 27.753906 20.027344 26.574219 22.726562 24.742188 C 22.828125 24.671875 22.921875 24.601562 23.019531 24.523438 C 24.363281 25.382812 26.082031 26.355469 27.546875 26.980469 C 29.605469 27.859375 31.730469 28.476562 33.972656 28.652344 C 35.277344 28.757812 36.574219 28.714844 37.867188 28.570312 C 39.023438 28.4375 40.160156 28.191406 41.28125 27.875 C 42.539062 27.523438 43.746094 27.0625 44.902344 26.449219 C 46.671875 25.503906 48.140625 24.214844 49.324219 22.601562 C 49.382812 22.523438 49.421875 22.429688 49.464844 22.34375 C 49.488281 22.296875 49.453125 22.207031 49.390625 22.207031 Z M 23.070312 24.039062 C 21.222656 22.710938 19.320312 21.027344 17.894531 19.242188 C 17.253906 18.441406 16.707031 17.578125 16.25 16.660156 C 15.929688 16.019531 15.6875 15.359375 15.550781 14.65625 C 15.386719 13.796875 15.367188 12.9375 15.613281 12.085938 C 15.734375 11.667969 15.902344 11.269531 16.125 10.894531 C 16.277344 10.640625 16.460938 10.410156 16.667969 10.195312 C 17.214844 9.628906 17.882812 9.34375 18.667969 9.320312 C 19.167969 9.304688 19.648438 9.371094 20.121094 9.53125 C 20.933594 9.808594 21.660156 10.230469 22.3125 10.785156 C 22.566406 11.003906 22.796875 11.25 22.964844 11.542969 C 23.042969 11.671875 23.058594 11.792969 23 11.933594 C 22.976562 11.984375 22.972656 12.054688 22.988281 12.097656 C 23.007812 12.144531 23.0625 12.183594 23.113281 12.207031 C 23.136719 12.222656 23.191406 12.199219 23.214844 12.175781 C 23.269531 12.121094 23.324219 12.0625 23.359375 11.996094 C 23.71875 11.355469 24.183594 10.792969 24.621094 10.210938 C 24.859375 9.894531 25.144531 9.625 25.464844 9.390625 C 26.332031 8.746094 27.292969 8.503906 28.363281 8.699219 C 28.894531 8.796875 29.386719 8.972656 29.832031 9.285156 C 30.539062 9.78125 30.984375 10.457031 31.207031 11.285156 C 31.308594 11.667969 31.363281 12.058594 31.34375 12.386719 C 31.34375 13.195312 31.171875 13.902344 30.925781 14.589844 C 30.726562 15.148438 30.464844 15.675781 30.183594 16.195312 C 29.523438 17.414062 28.730469 18.539062 27.847656 19.597656 C 26.542969 21.164062 25.066406 22.550781 23.453125 23.789062 C 23.359375 23.863281 23.191406 23.992188 23.089844 24.046875 Z M 23.070312 24.039062 " fill-opacity="1" fill-rule="nonzero"/></g></svg>